<svg width="404" height="780" viewBox="0 0 404 780" fill="none" xmlns="http://www.w3.org/2000/svg">
<path d="M40 42C40 40.8954 40.8954 40 42 40H362C363.105 40 364 40.8954 364 42V738C364 739.105 363.105 740 362 740H42C40.8954 740 40 739.105 40 738V42Z" fill="white"/>
<circle cx="107" cy="160" r="2" fill="#33383D"/>
<circle cx="122" cy="160" r="3" fill="url(#paint0_radial_0_1)"/>
<circle cx="136" cy="160" r="4" fill="url(#paint1_radial_0_1)"/>
<circle cx="148" cy="160" r="2" fill="url(#paint2_radial_0_1)"/>
<rect x="83.5" y="136.5" width="85" height="47" rx="4.5" stroke="#9747FF" stroke-dasharray="10 5"/>
<path d="M42 41H362V39H42V41ZM363 42V738H365V42H363ZM362 739H42V741H362V739ZM41 738V42H39V738H41ZM42 739C41.4477 739 41 738.552 41 738H39C39 739.657 40.3431 741 42 741V739ZM363 738C363 738.552 362.552 739 362 739V741C363.657 741 365 739.657 365 738H363ZM362 41C362.552 41 363 41.4477 363 42H365C365 40.3431 363.657 39 362 39V41ZM42 39C40.3431 39 39 40.3432 39 42H41C41 41.4477 41.4477 41 42 41V39Z" fill="black" fill-opacity="0.1"/>
<rect x="40" y="8" width="64.9844" height="26" rx="2" fill="white"/>
<rect x="40.5" y="8.5" width="63.9844" height="25" rx="1.5" stroke="black" stroke-opacity="0.14902"/>
<path d="M44.9688 24V16H45.9375V23.1406H49.6563V24H44.9688ZM51.0313 24V18H51.9531V24H51.0313ZM51.5 17C51.3203 17 51.1654 16.9388 51.0352 16.8164C50.9076 16.694 50.8438 16.5469 50.8438 16.375C50.8438 16.2031 50.9076 16.056 51.0352 15.9336C51.1654 15.8112 51.3203 15.75 51.5 15.75C51.6797 15.75 51.8333 15.8112 51.9609 15.9336C52.0911 16.056 52.1563 16.2031 52.1563 16.375C52.1563 16.5469 52.0911 16.694 51.9609 16.8164C51.8333 16.9388 51.6797 17 51.5 17ZM56.0635 26.375C55.6182 26.375 55.2354 26.3177 54.915 26.2031C54.5947 26.0911 54.3278 25.9427 54.1143 25.7578C53.9033 25.5755 53.7354 25.3802 53.6104 25.1719L54.3447 24.6563C54.4281 24.7656 54.5335 24.8906 54.6611 25.0312C54.7887 25.1745 54.9632 25.2982 55.1846 25.4023C55.4085 25.5091 55.7015 25.5625 56.0635 25.5625C56.5479 25.5625 56.9476 25.4453 57.2627 25.2109C57.5778 24.9766 57.7354 24.6094 57.7354 24.1094V22.8906H57.6572C57.5895 23 57.4932 23.1354 57.3682 23.2969C57.2458 23.4557 57.0687 23.5977 56.8369 23.7227C56.6077 23.8451 56.2979 23.9062 55.9072 23.9062C55.4229 23.9062 54.988 23.7917 54.6025 23.5625C54.2197 23.3333 53.9163 23 53.6924 22.5625C53.471 22.125 53.3604 21.5937 53.3604 20.9687C53.3604 20.3542 53.4684 19.819 53.6846 19.3633C53.9007 18.9049 54.2015 18.5508 54.5869 18.3008C54.9723 18.0482 55.4176 17.9219 55.9229 17.9219C56.3135 17.9219 56.6234 17.987 56.8525 18.1172C57.0843 18.2448 57.2614 18.3906 57.3838 18.5547C57.5088 18.7161 57.6051 18.849 57.6729 18.9531H57.7666V18H58.6572V24.1719C58.6572 24.6875 58.54 25.1068 58.3057 25.4297C58.0739 25.7552 57.7614 25.9935 57.3682 26.1445C56.9775 26.2982 56.5426 26.375 56.0635 26.375ZM56.0322 23.0781C56.402 23.0781 56.7145 22.9935 56.9697 22.8242C57.2249 22.6549 57.4189 22.4115 57.5518 22.0938C57.6846 21.776 57.751 21.3958 57.751 20.9531C57.751 20.5208 57.6859 20.1393 57.5557 19.8086C57.4255 19.4779 57.2327 19.2187 56.9775 19.0312C56.7223 18.8437 56.4072 18.75 56.0322 18.75C55.6416 18.75 55.3161 18.849 55.0557 19.0469C54.7979 19.2448 54.6038 19.5104 54.4736 19.8438C54.346 20.1771 54.2822 20.5469 54.2822 20.9531C54.2822 21.3698 54.3473 21.7383 54.4775 22.0586C54.6104 22.3763 54.8057 22.6263 55.0635 22.8086C55.3239 22.9883 55.6468 23.0781 56.0322 23.0781ZM61.2666 20.3906V24H60.3447V16H61.2666V18.9375H61.3447C61.4854 18.6276 61.6963 18.3815 61.9775 18.1992C62.2614 18.0143 62.639 17.9219 63.1104 17.9219C63.5192 17.9219 63.8773 18.0039 64.1846 18.168C64.4919 18.3294 64.7301 18.5781 64.8994 18.9141C65.0713 19.2474 65.1572 19.6719 65.1572 20.1875V24H64.2354V20.25C64.2354 19.7734 64.1117 19.4049 63.8643 19.1445C63.6195 18.8815 63.2796 18.75 62.8447 18.75C62.5426 18.75 62.2718 18.8138 62.0322 18.9414C61.7952 19.069 61.6077 19.2552 61.4697 19.5C61.3343 19.7448 61.2666 20.0417 61.2666 20.3906ZM69.4531 18V18.7812H66.3438V18H69.4531ZM67.25 16.5625H68.1719V22.2812C68.1719 22.5417 68.2096 22.737 68.2852 22.8672C68.3633 22.9948 68.4622 23.0807 68.582 23.125C68.7044 23.1667 68.8333 23.1875 68.9688 23.1875C69.0703 23.1875 69.1536 23.1823 69.2188 23.1719C69.2839 23.1589 69.3359 23.1484 69.375 23.1406L69.5625 23.9687C69.5 23.9922 69.4128 24.0156 69.3008 24.0391C69.1888 24.0651 69.0469 24.0781 68.875 24.0781C68.6146 24.0781 68.3594 24.0221 68.1094 23.9102C67.862 23.7982 67.6563 23.6276 67.4922 23.3984C67.3307 23.1693 67.25 22.8802 67.25 22.5312V16.5625ZM74.9824 19.3437L74.1543 19.5781C74.1022 19.4401 74.0254 19.306 73.9238 19.1758C73.8249 19.043 73.6895 18.9336 73.5176 18.8477C73.3457 18.7617 73.1257 18.7187 72.8574 18.7187C72.4902 18.7187 72.1842 18.8034 71.9395 18.9727C71.6973 19.1393 71.5762 19.3516 71.5762 19.6094C71.5762 19.8385 71.6595 20.0195 71.8262 20.1523C71.9928 20.2852 72.2533 20.3958 72.6074 20.4844L73.498 20.7031C74.0345 20.8333 74.4342 21.0326 74.6973 21.3008C74.9603 21.5664 75.0918 21.9089 75.0918 22.3281C75.0918 22.6719 74.9928 22.9792 74.7949 23.25C74.5996 23.5208 74.3262 23.7344 73.9746 23.8906C73.623 24.0469 73.2142 24.125 72.748 24.125C72.1361 24.125 71.6296 23.9922 71.2285 23.7266C70.8275 23.4609 70.5736 23.0729 70.4668 22.5625L71.3418 22.3437C71.4251 22.6667 71.5827 22.9089 71.8145 23.0703C72.0488 23.2318 72.3548 23.3125 72.7324 23.3125C73.1621 23.3125 73.5033 23.2214 73.7559 23.0391C74.0111 22.8542 74.1387 22.6328 74.1387 22.375C74.1387 22.1667 74.0658 21.9922 73.9199 21.8516C73.7741 21.7083 73.5501 21.6016 73.248 21.5312L72.248 21.2969C71.6986 21.1667 71.2949 20.9648 71.0371 20.6914C70.7819 20.4154 70.6543 20.0703 70.6543 19.6562C70.6543 19.3177 70.7493 19.0182 70.9395 18.7578C71.1322 18.4974 71.3939 18.293 71.7246 18.1445C72.0579 17.9961 72.4355 17.9219 72.8574 17.9219C73.4512 17.9219 73.9173 18.0521 74.2559 18.3125C74.597 18.5729 74.8392 18.9167 74.9824 19.3437ZM84.0732 18C84.0264 17.6042 83.8363 17.2969 83.5029 17.0781C83.1696 16.8594 82.7607 16.75 82.2764 16.75C81.9222 16.75 81.6123 16.8073 81.3467 16.9219C81.0837 17.0365 80.8779 17.194 80.7295 17.3945C80.5837 17.5951 80.5107 17.8229 80.5107 18.0781C80.5107 18.2917 80.5615 18.4753 80.6631 18.6289C80.7673 18.7799 80.9001 18.9062 81.0615 19.0078C81.223 19.1068 81.3923 19.1888 81.5693 19.2539C81.7464 19.3164 81.9092 19.3672 82.0576 19.4062L82.8701 19.625C83.0785 19.6797 83.3102 19.7552 83.5654 19.8516C83.8232 19.9479 84.0693 20.0794 84.3037 20.2461C84.5407 20.4102 84.736 20.6211 84.8896 20.8789C85.0433 21.1367 85.1201 21.4531 85.1201 21.8281C85.1201 22.2604 85.0068 22.651 84.7803 23C84.5563 23.349 84.2282 23.6263 83.7959 23.832C83.3662 24.0378 82.8441 24.1406 82.2295 24.1406C81.6566 24.1406 81.1605 24.0482 80.7412 23.8633C80.3245 23.6784 79.9964 23.4206 79.7568 23.0898C79.5199 22.7591 79.3857 22.375 79.3545 21.9375H80.3545C80.3805 22.2396 80.4821 22.4896 80.6592 22.6875C80.8389 22.8828 81.0654 23.0286 81.3389 23.125C81.6149 23.2187 81.9118 23.2656 82.2295 23.2656C82.5993 23.2656 82.9313 23.2057 83.2256 23.0859C83.5199 22.9635 83.7529 22.7943 83.9248 22.5781C84.0967 22.3594 84.1826 22.1042 84.1826 21.8125C84.1826 21.5469 84.1084 21.3307 83.96 21.1641C83.8115 20.9974 83.6162 20.862 83.374 20.7578C83.1318 20.6536 82.8701 20.5625 82.5889 20.4844L81.6045 20.2031C80.9795 20.0234 80.4847 19.7669 80.1201 19.4336C79.7555 19.1003 79.5732 18.6641 79.5732 18.125C79.5732 17.6771 79.6943 17.2865 79.9365 16.9531C80.1813 16.6172 80.5094 16.3568 80.9209 16.1719C81.335 15.9844 81.7972 15.8906 82.3076 15.8906C82.8232 15.8906 83.2816 15.9831 83.6826 16.168C84.0837 16.3503 84.4014 16.6003 84.6357 16.918C84.8727 17.2357 84.9977 17.5964 85.0107 18H84.0732ZM87.041 16L89.416 22.7344H89.5098L91.8848 16H92.9004L89.9629 24H88.9629L86.0254 16H87.041ZM99.2393 18.5C99.1533 18.237 99.04 18.0013 98.8994 17.793C98.7614 17.582 98.596 17.4023 98.4033 17.2539C98.2132 17.1055 97.9971 16.9922 97.7549 16.9141C97.5127 16.8359 97.2471 16.7969 96.958 16.7969C96.484 16.7969 96.0531 16.9193 95.665 17.1641C95.277 17.4089 94.9684 17.7695 94.7393 18.2461C94.5101 18.7227 94.3955 19.3073 94.3955 20C94.3955 20.6927 94.5114 21.2773 94.7432 21.7539C94.9749 22.2305 95.2887 22.5911 95.6846 22.8359C96.0804 23.0807 96.5257 23.2031 97.0205 23.2031C97.4788 23.2031 97.8825 23.1055 98.2314 22.9102C98.583 22.7122 98.8564 22.4336 99.0518 22.0742C99.2497 21.7122 99.3486 21.2865 99.3486 20.7969L99.6455 20.8594H97.2393V20H100.286V20.8594C100.286 21.5182 100.146 22.0911 99.8643 22.5781C99.5856 23.0651 99.2002 23.4427 98.708 23.7109C98.2184 23.9766 97.6559 24.1094 97.0205 24.1094C96.3122 24.1094 95.6898 23.9427 95.1533 23.6094C94.6195 23.276 94.2028 22.8021 93.9033 22.1875C93.6064 21.5729 93.458 20.8437 93.458 20C93.458 19.3672 93.5426 18.7982 93.7119 18.293C93.8838 17.7852 94.126 17.3529 94.4385 16.9961C94.751 16.6393 95.1208 16.3659 95.5479 16.1758C95.9749 15.9857 96.445 15.8906 96.958 15.8906C97.3799 15.8906 97.7731 15.9544 98.1377 16.082C98.5049 16.207 98.8317 16.3854 99.1182 16.6172C99.4072 16.8464 99.6481 17.1211 99.8408 17.4414C100.034 17.7591 100.166 18.112 100.239 18.5H99.2393Z" fill="black"/>
<defs>
<radialGradient id="paint0_radial_0_1" cx="0" cy="0" r="1" gradientUnits="userSpaceOnUse" gradientTransform="translate(122 160) rotate(90) scale(3)">
<stop offset="0.5" stop-color="#426F99"/>
<stop offset="1" stop-color="#4F8DC6" stop-opacity="0"/>
</radialGradient>
<radialGradient id="paint1_radial_0_1" cx="0" cy="0" r="1" gradientUnits="userSpaceOnUse" gradientTransform="translate(136 160) rotate(90) scale(4)">
<stop offset="0.333333" stop-color="#4F8DC6"/>
<stop offset="1" stop-color="#4F8DC6" stop-opacity="0"/>
</radialGradient>
<radialGradient id="paint2_radial_0_1" cx="0" cy="0" r="1" gradientUnits="userSpaceOnUse" gradientTransform="translate(148 160) rotate(90) scale(2)">
<stop offset="0.333333" stop-color="#3872A7"/>
<stop offset="1" stop-color="#4F8DC6" stop-opacity="0"/>
</radialGradient>
</defs>
</svg>
