<svg width="5549" height="103" viewBox="0 0 5549 103" fill="none" xmlns="http://www.w3.org/2000/svg">
<rect width="5549" height="103" fill="#75FB8E"/>
<path d="M57.4717 48.8184H46.7822V41.6582C46.7822 39.5762 46.6637 38.2812 46.4268 37.7734C46.2067 37.2487 45.7074 36.9863 44.9287 36.9863C44.0485 36.9863 43.4899 37.2995 43.2529 37.9258C43.016 38.5521 42.8975 39.9062 42.8975 41.9883V61.082C42.8975 63.0794 43.016 64.3828 43.2529 64.9922C43.4899 65.6016 44.0231 65.9062 44.8525 65.9062C45.6481 65.9062 46.1644 65.6016 46.4014 64.9922C46.6553 64.3828 46.7822 62.9525 46.7822 60.7012V55.5469H57.4717V57.1465C57.4717 61.3952 57.167 64.4082 56.5576 66.1855C55.9652 67.9629 54.6364 69.5202 52.5713 70.8574C50.5231 72.1947 47.9925 72.8633 44.9795 72.8633C41.848 72.8633 39.2666 72.2962 37.2354 71.1621C35.2041 70.028 33.8584 68.4622 33.1982 66.4648C32.5381 64.4505 32.208 61.429 32.208 57.4004V45.3906C32.208 42.4284 32.3096 40.2109 32.5127 38.7383C32.7158 37.2487 33.3167 35.8184 34.3154 34.4473C35.3311 33.0762 36.7275 32.0013 38.5049 31.2227C40.2992 30.4271 42.3558 30.0293 44.6748 30.0293C47.8232 30.0293 50.4215 30.6387 52.4697 31.8574C54.5179 33.0762 55.8636 34.5996 56.5068 36.4277C57.1501 38.2389 57.4717 41.0658 57.4717 44.9082V48.8184ZM87.8114 54.9629C87.8114 59.0931 87.7099 62.0215 87.5068 63.748C87.3206 65.4577 86.7112 67.0234 85.6786 68.4453C84.663 69.8672 83.2835 70.959 81.54 71.7207C79.7965 72.4824 77.7652 72.8633 75.4462 72.8633C73.2457 72.8633 71.2652 72.5078 69.5048 71.7969C67.7613 71.069 66.3564 69.9857 65.29 68.5469C64.2236 67.1081 63.5888 65.5423 63.3857 63.8496C63.1825 62.1569 63.081 59.1947 63.081 54.9629V47.9297C63.081 43.7995 63.1741 40.8796 63.3603 39.1699C63.5634 37.4434 64.1728 35.8691 65.1884 34.4473C66.221 33.0254 67.609 31.9336 69.3525 31.1719C71.096 30.4102 73.1272 30.0293 75.4462 30.0293C77.6467 30.0293 79.6187 30.3932 81.3622 31.1211C83.1226 31.832 84.5361 32.9069 85.6025 34.3457C86.6689 35.7845 87.3036 37.3503 87.5068 39.043C87.7099 40.7357 87.8114 43.6979 87.8114 47.9297V54.9629ZM77.122 41.4551C77.122 39.5423 77.012 38.3236 76.7919 37.7988C76.5888 37.2572 76.1571 36.9863 75.497 36.9863C74.9384 36.9863 74.5068 37.2064 74.2021 37.6465C73.9143 38.0697 73.7704 39.3392 73.7704 41.4551V60.6504C73.7704 63.0371 73.8635 64.5098 74.0497 65.0684C74.2529 65.627 74.7099 65.9062 75.4208 65.9062C76.1487 65.9062 76.6142 65.5846 76.8173 64.9414C77.0204 64.2982 77.122 62.7663 77.122 60.3457V41.4551ZM126.886 30.8926V72H117.542V44.248L113.809 72H107.182L103.247 44.8828V72H93.9032V30.8926H107.741C108.147 33.3639 108.579 36.2754 109.036 39.627L110.509 50.0879L112.946 30.8926H126.886ZM133.257 30.8926H144.022C146.934 30.8926 149.168 31.1211 150.725 31.5781C152.3 32.0352 153.476 32.6953 154.255 33.5586C155.05 34.4219 155.583 35.4714 155.854 36.707C156.142 37.9258 156.286 39.8216 156.286 42.3945V45.9746C156.286 48.5983 156.015 50.5111 155.473 51.7129C154.932 52.9147 153.933 53.8372 152.477 54.4805C151.039 55.1237 149.151 55.4453 146.815 55.4453H143.946V72H133.257V30.8926ZM143.946 37.9258V48.3867C144.251 48.4036 144.513 48.4121 144.733 48.4121C145.715 48.4121 146.392 48.1751 146.764 47.7012C147.154 47.2103 147.348 46.2031 147.348 44.6797V41.3027C147.348 39.8978 147.128 38.9837 146.688 38.5605C146.248 38.1374 145.334 37.9258 143.946 37.9258ZM179.897 30.8926L186.016 72H175.073L174.54 64.6113H170.706L170.071 72H159.001L164.434 30.8926H179.897ZM174.235 57.3242C173.693 52.6693 173.152 46.9225 172.61 40.084C171.527 47.9382 170.85 53.6849 170.579 57.3242H174.235ZM189.924 30.8926H197.491C202.535 30.8926 205.946 31.0872 207.723 31.4766C209.518 31.8659 210.973 32.8646 212.09 34.4727C213.225 36.0638 213.792 38.6113 213.792 42.1152C213.792 45.3145 213.394 47.4642 212.598 48.5645C211.803 49.6647 210.237 50.3249 207.901 50.5449C210.017 51.0697 211.439 51.7721 212.167 52.6523C212.894 53.5326 213.343 54.3451 213.512 55.0898C213.698 55.8177 213.792 57.8405 213.792 61.1582V72H203.864V58.3398C203.864 56.1393 203.686 54.7767 203.331 54.252C202.992 53.7272 202.087 53.4648 200.614 53.4648V72H189.924V30.8926ZM200.614 37.9258V47.0664C201.816 47.0664 202.654 46.9056 203.128 46.584C203.618 46.2454 203.864 45.1706 203.864 43.3594V41.0996C203.864 39.7962 203.627 38.9414 203.153 38.5352C202.696 38.1289 201.85 37.9258 200.614 37.9258ZM220.036 30.8926H237.86V39.1191H230.725V46.9141H237.403V54.7344H230.725V63.7734H238.571V72H220.036V30.8926ZM243.748 30.8926H251.747C256.909 30.8926 260.396 31.1296 262.207 31.6035C264.036 32.0775 265.424 32.8561 266.372 33.9395C267.319 35.0228 267.912 36.2331 268.149 37.5703C268.386 38.8906 268.504 41.4974 268.504 45.3906V59.7871C268.504 63.4772 268.327 65.9486 267.971 67.2012C267.633 68.4368 267.032 69.4102 266.168 70.1211C265.305 70.8151 264.239 71.306 262.969 71.5938C261.7 71.8646 259.787 72 257.231 72H243.748V30.8926ZM254.438 37.9258V64.9668C255.978 64.9668 256.926 64.6621 257.282 64.0527C257.637 63.4264 257.815 61.7422 257.815 59V43.0293C257.815 41.1673 257.756 39.974 257.637 39.4492C257.519 38.9245 257.248 38.5436 256.825 38.3066C256.401 38.0527 255.606 37.9258 254.438 37.9258ZM307.373 30.8926V39.1191H301.026V72H290.336V39.1191H284.014V30.8926H307.373ZM336.317 54.9629C336.317 59.0931 336.215 62.0215 336.012 63.748C335.826 65.4577 335.216 67.0234 334.184 68.4453C333.168 69.8672 331.789 70.959 330.045 71.7207C328.302 72.4824 326.27 72.8633 323.951 72.8633C321.751 72.8633 319.77 72.5078 318.01 71.7969C316.266 71.069 314.862 69.9857 313.795 68.5469C312.729 67.1081 312.094 65.5423 311.891 63.8496C311.688 62.1569 311.586 59.1947 311.586 54.9629V47.9297C311.586 43.7995 311.679 40.8796 311.865 39.1699C312.069 37.4434 312.678 35.8691 313.694 34.4473C314.726 33.0254 316.114 31.9336 317.858 31.1719C319.601 30.4102 321.632 30.0293 323.951 30.0293C326.152 30.0293 328.124 30.3932 329.867 31.1211C331.628 31.832 333.041 32.9069 334.108 34.3457C335.174 35.7845 335.809 37.3503 336.012 39.043C336.215 40.7357 336.317 43.6979 336.317 47.9297V54.9629ZM325.627 41.4551C325.627 39.5423 325.517 38.3236 325.297 37.7988C325.094 37.2572 324.662 36.9863 324.002 36.9863C323.444 36.9863 323.012 37.2064 322.707 37.6465C322.419 38.0697 322.276 39.3392 322.276 41.4551V60.6504C322.276 63.0371 322.369 64.5098 322.555 65.0684C322.758 65.627 323.215 65.9062 323.926 65.9062C324.654 65.9062 325.119 65.5846 325.322 64.9414C325.526 64.2982 325.627 62.7663 325.627 60.3457V41.4551ZM375.211 30.8926V39.1191H368.863V72H358.174V39.1191H351.852V30.8926H375.211ZM404.307 30.8926V72H393.617V54.7344H390.418V72H379.728V30.8926H390.418V45.5938H393.617V30.8926H404.307ZM410.703 30.8926H428.527V39.1191H421.392V46.9141H428.07V54.7344H421.392V63.7734H429.238V72H410.703V30.8926ZM470.265 30.8926V72H459.576V54.7344H456.377V72H445.687V30.8926H456.377V45.5938H459.576V30.8926H470.265ZM476.662 30.8926H494.486V39.1191H487.351V46.9141H494.029V54.7344H487.351V63.7734H495.197V72H476.662V30.8926ZM518.834 30.8926L524.953 72H514.009L513.476 64.6113H509.642L509.007 72H497.937L503.371 30.8926H518.834ZM513.171 57.3242C512.63 52.6693 512.088 46.9225 511.546 40.084C510.463 47.9382 509.786 53.6849 509.515 57.3242H513.171ZM528.861 30.8926H536.427C541.471 30.8926 544.882 31.0872 546.66 31.4766C548.454 31.8659 549.91 32.8646 551.027 34.4727C552.161 36.0638 552.728 38.6113 552.728 42.1152C552.728 45.3145 552.33 47.4642 551.535 48.5645C550.739 49.6647 549.173 50.3249 546.837 50.5449C548.953 51.0697 550.375 51.7721 551.103 52.6523C551.831 53.5326 552.279 54.3451 552.449 55.0898C552.635 55.8177 552.728 57.8405 552.728 61.1582V72H542.8V58.3398C542.8 56.1393 542.623 54.7767 542.267 54.252C541.929 53.7272 541.023 53.4648 539.55 53.4648V72H528.861V30.8926ZM539.55 37.9258V47.0664C540.752 47.0664 541.59 46.9056 542.064 46.584C542.555 46.2454 542.8 45.1706 542.8 43.3594V41.0996C542.8 39.7962 542.563 38.9414 542.089 38.5352C541.632 38.1289 540.786 37.9258 539.55 37.9258ZM569.661 30.8926V72H558.972V30.8926H569.661ZM599.9 30.8926V72H590.531L584.97 53.3125V72H576.033V30.8926H584.97L590.962 49.4023V30.8926H599.9ZM630.823 46.0254H620.134V42.293C620.134 39.9401 620.032 38.4674 619.829 37.875C619.626 37.2826 619.144 36.9863 618.382 36.9863C617.722 36.9863 617.273 37.2402 617.036 37.748C616.799 38.2559 616.681 39.5592 616.681 41.6582V61.3867C616.681 63.2318 616.799 64.4505 617.036 65.043C617.273 65.6185 617.747 65.9062 618.458 65.9062C619.237 65.9062 619.762 65.5762 620.032 64.916C620.32 64.2559 620.464 62.9694 620.464 61.0566V56.1816H618.306V49.9355H630.823V72H624.095L623.105 69.0547C622.377 70.3242 621.454 71.2806 620.337 71.9238C619.237 72.5501 617.934 72.8633 616.427 72.8633C614.633 72.8633 612.948 72.4316 611.374 71.5684C609.817 70.6882 608.632 69.6048 607.82 68.3184C607.007 67.0319 606.499 65.6862 606.296 64.2812C606.093 62.8594 605.991 60.735 605.991 57.9082V45.6953C605.991 41.7682 606.203 38.916 606.626 37.1387C607.049 35.3613 608.26 33.7363 610.257 32.2637C612.271 30.7741 614.87 30.0293 618.052 30.0293C621.184 30.0293 623.782 30.6725 625.847 31.959C627.912 33.2454 629.258 34.7773 629.884 36.5547C630.51 38.3151 630.823 40.8796 630.823 44.248V46.0254ZM672.765 54.9629C672.765 59.0931 672.663 62.0215 672.46 63.748C672.274 65.4577 671.664 67.0234 670.632 68.4453C669.616 69.8672 668.237 70.959 666.493 71.7207C664.75 72.4824 662.718 72.8633 660.399 72.8633C658.199 72.8633 656.218 72.5078 654.458 71.7969C652.715 71.069 651.31 69.9857 650.243 68.5469C649.177 67.1081 648.542 65.5423 648.339 63.8496C648.136 62.1569 648.034 59.1947 648.034 54.9629V47.9297C648.034 43.7995 648.127 40.8796 648.314 39.1699C648.517 37.4434 649.126 35.8691 650.142 34.4473C651.174 33.0254 652.562 31.9336 654.306 31.1719C656.049 30.4102 658.08 30.0293 660.399 30.0293C662.6 30.0293 664.572 30.3932 666.315 31.1211C668.076 31.832 669.489 32.9069 670.556 34.3457C671.622 35.7845 672.257 37.3503 672.46 39.043C672.663 40.7357 672.765 43.6979 672.765 47.9297V54.9629ZM662.075 41.4551C662.075 39.5423 661.965 38.3236 661.745 37.7988C661.542 37.2572 661.11 36.9863 660.45 36.9863C659.892 36.9863 659.46 37.2064 659.155 37.6465C658.868 38.0697 658.724 39.3392 658.724 41.4551V60.6504C658.724 63.0371 658.817 64.5098 659.003 65.0684C659.206 65.627 659.663 65.9062 660.374 65.9062C661.102 65.9062 661.567 65.5846 661.771 64.9414C661.974 64.2982 662.075 62.7663 662.075 60.3457V41.4551ZM678.856 30.8926H696.96V39.1191H689.546V46.9141H696.147V54.7344H689.546V72H678.856V30.8926ZM737.505 30.8926V72H726.815V54.7344H723.616V72H712.927V30.8926H723.616V45.5938H726.815V30.8926H737.505ZM768.2 30.8926V58.3652C768.2 61.4798 768.098 63.6719 767.895 64.9414C767.692 66.194 767.091 67.4889 766.093 68.8262C765.094 70.1465 763.774 71.1536 762.132 71.8477C760.507 72.5247 758.585 72.8633 756.368 72.8633C753.913 72.8633 751.747 72.457 749.868 71.6445C747.989 70.832 746.584 69.7741 745.653 68.4707C744.722 67.1673 744.172 65.7962 744.003 64.3574C743.833 62.9017 743.749 59.8548 743.749 55.2168V30.8926H754.438V61.7168C754.438 63.5111 754.531 64.6621 754.718 65.1699C754.921 65.6608 755.318 65.9062 755.911 65.9062C756.588 65.9062 757.02 65.6354 757.206 65.0938C757.409 64.5352 757.51 63.2318 757.51 61.1836V30.8926H768.2ZM807.401 30.8926V72H798.057V44.248L794.325 72H787.698L783.762 44.8828V72H774.419V30.8926H788.257C788.663 33.3639 789.094 36.2754 789.551 39.627L791.024 50.0879L793.462 30.8926H807.401ZM832.231 30.8926L838.35 72H827.407L826.874 64.6113H823.04L822.405 72H811.335L816.768 30.8926H832.231ZM826.569 57.3242C826.027 52.6693 825.486 46.9225 824.944 40.084C823.861 47.9382 823.184 53.6849 822.913 57.3242H826.569ZM866.125 30.8926V72H856.756L851.196 53.3125V72H842.258V30.8926H851.196L857.188 49.4023V30.8926H866.125ZM895.17 43.334H885.243V40.2871C885.243 38.8652 885.116 37.9596 884.862 37.5703C884.608 37.181 884.185 36.9863 883.592 36.9863C882.949 36.9863 882.458 37.2487 882.12 37.7734C881.798 38.2982 881.637 39.0938 881.637 40.1602C881.637 41.5312 881.823 42.5638 882.196 43.2578C882.551 43.9518 883.558 44.7897 885.217 45.7715C889.974 48.5983 892.97 50.9173 894.206 52.7285C895.441 54.5397 896.059 57.4596 896.059 61.4883C896.059 64.4167 895.712 66.5749 895.018 67.9629C894.341 69.3509 893.021 70.5189 891.057 71.4668C889.094 72.3978 886.808 72.8633 884.202 72.8633C881.341 72.8633 878.895 72.3216 876.864 71.2383C874.849 70.1549 873.529 68.7754 872.903 67.0996C872.276 65.4238 871.963 63.0456 871.963 59.9648V57.2734H881.891V62.2754C881.891 63.8158 882.026 64.806 882.297 65.2461C882.585 65.6862 883.084 65.9062 883.795 65.9062C884.506 65.9062 885.031 65.627 885.37 65.0684C885.725 64.5098 885.903 63.6803 885.903 62.5801C885.903 60.1595 885.573 58.5768 884.913 57.832C884.235 57.0872 882.568 55.8431 879.911 54.0996C877.253 52.3392 875.493 51.0612 874.629 50.2656C873.766 49.4701 873.047 48.3698 872.471 46.9648C871.913 45.5599 871.633 43.7656 871.633 41.582C871.633 38.4336 872.031 36.1315 872.827 34.6758C873.639 33.2201 874.942 32.0859 876.737 31.2734C878.531 30.444 880.698 30.0293 883.237 30.0293C886.013 30.0293 888.374 30.4779 890.321 31.375C892.284 32.2721 893.579 33.4062 894.206 34.7773C894.849 36.1315 895.17 38.4421 895.17 41.709V43.334ZM907.178 63.9512V67.6328C907.178 69.5625 906.95 71.1452 906.493 72.3809C906.036 73.6165 905.24 74.666 904.106 75.5293C902.989 76.3926 901.719 76.9681 900.297 77.2559V74.3105C901.313 73.735 901.888 72.9648 902.024 72H900.297V63.9512H907.178ZM945.133 30.8926V39.1191H938.785V72H928.096V39.1191H921.774V30.8926H945.133ZM974.229 30.8926V72H963.539V54.7344H960.34V72H949.651V30.8926H960.34V45.5938H963.539V30.8926H974.229ZM980.625 30.8926H998.449V39.1191H991.315V46.9141H997.992V54.7344H991.315V63.7734H999.16V72H980.625V30.8926ZM1040.19 30.8926V72H1029.5V54.7344H1026.3V72H1015.61V30.8926H1026.3V45.5938H1029.5V30.8926H1040.19ZM1046.58 30.8926H1064.41V39.1191H1057.27V46.9141H1063.95V54.7344H1057.27V63.7734H1065.12V72H1046.58V30.8926ZM1088.76 30.8926L1094.87 72H1083.93L1083.4 64.6113H1079.56L1078.93 72H1067.86L1073.29 30.8926H1088.76ZM1083.09 57.3242C1082.55 52.6693 1082.01 46.9225 1081.47 40.084C1080.39 47.9382 1079.71 53.6849 1079.44 57.3242H1083.09ZM1098.78 30.8926H1106.35C1111.39 30.8926 1114.8 31.0872 1116.58 31.4766C1118.38 31.8659 1119.83 32.8646 1120.95 34.4727C1122.08 36.0638 1122.65 38.6113 1122.65 42.1152C1122.65 45.3145 1122.25 47.4642 1121.46 48.5645C1120.66 49.6647 1119.1 50.3249 1116.76 50.5449C1118.88 51.0697 1120.3 51.7721 1121.03 52.6523C1121.75 53.5326 1122.2 54.3451 1122.37 55.0898C1122.56 55.8177 1122.65 57.8405 1122.65 61.1582V72H1112.72V58.3398C1112.72 56.1393 1112.54 54.7767 1112.19 54.252C1111.85 53.7272 1110.94 53.4648 1109.47 53.4648V72H1098.78V30.8926ZM1109.47 37.9258V47.0664C1110.67 47.0664 1111.51 46.9056 1111.99 46.584C1112.48 46.2454 1112.72 45.1706 1112.72 43.3594V41.0996C1112.72 39.7962 1112.49 38.9414 1112.01 38.5352C1111.55 38.1289 1110.71 37.9258 1109.47 37.9258ZM1139.58 30.8926V72H1128.89V30.8926H1139.58ZM1169.82 30.8926V72H1160.45L1154.89 53.3125V72H1145.95V30.8926H1154.89L1160.88 49.4023V30.8926H1169.82ZM1200.75 46.0254H1190.06V42.293C1190.06 39.9401 1189.95 38.4674 1189.75 37.875C1189.55 37.2826 1189.07 36.9863 1188.3 36.9863C1187.64 36.9863 1187.2 37.2402 1186.96 37.748C1186.72 38.2559 1186.6 39.5592 1186.6 41.6582V61.3867C1186.6 63.2318 1186.72 64.4505 1186.96 65.043C1187.2 65.6185 1187.67 65.9062 1188.38 65.9062C1189.16 65.9062 1189.68 65.5762 1189.95 64.916C1190.24 64.2559 1190.39 62.9694 1190.39 61.0566V56.1816H1188.23V49.9355H1200.75V72H1194.02L1193.03 69.0547C1192.3 70.3242 1191.38 71.2806 1190.26 71.9238C1189.16 72.5501 1187.86 72.8633 1186.35 72.8633C1184.55 72.8633 1182.87 72.4316 1181.3 71.5684C1179.74 70.6882 1178.55 69.6048 1177.74 68.3184C1176.93 67.0319 1176.42 65.6862 1176.22 64.2812C1176.02 62.8594 1175.91 60.735 1175.91 57.9082V45.6953C1175.91 41.7682 1176.13 38.916 1176.55 37.1387C1176.97 35.3613 1178.18 33.7363 1180.18 32.2637C1182.19 30.7741 1184.79 30.0293 1187.97 30.0293C1191.11 30.0293 1193.7 30.6725 1195.77 31.959C1197.83 33.2454 1199.18 34.7773 1199.81 36.5547C1200.43 38.3151 1200.75 40.8796 1200.75 44.248V46.0254ZM1236.72 30.8926L1242.84 72H1231.9L1231.36 64.6113H1227.53L1226.89 72H1215.82L1221.26 30.8926H1236.72ZM1231.06 57.3242C1230.52 52.6693 1229.97 46.9225 1229.43 40.084C1228.35 47.9382 1227.67 53.6849 1227.4 57.3242H1231.06ZM1246.75 30.8926H1257.41C1260.78 30.8926 1263.33 31.1549 1265.05 31.6797C1266.8 32.2044 1268.2 33.2708 1269.27 34.8789C1270.34 36.4701 1270.87 39.043 1270.87 42.5977C1270.87 45.0013 1270.49 46.6771 1269.73 47.625C1268.98 48.5729 1267.5 49.3008 1265.28 49.8086C1267.75 50.3672 1269.43 51.2982 1270.31 52.6016C1271.19 53.888 1271.63 55.8685 1271.63 58.543V62.3516C1271.63 65.1276 1271.31 67.1842 1270.67 68.5215C1270.04 69.8587 1269.03 70.7728 1267.64 71.2637C1266.26 71.7546 1263.41 72 1259.11 72H1246.75V30.8926ZM1257.44 37.9258V47.0664C1257.89 47.0495 1258.25 47.041 1258.5 47.041C1259.55 47.041 1260.22 46.7871 1260.51 46.2793C1260.8 45.7546 1260.94 44.2734 1260.94 41.8359C1260.94 40.5495 1260.82 39.6523 1260.59 39.1445C1260.35 38.6198 1260.03 38.2897 1259.65 38.1543C1259.27 38.0189 1258.54 37.9427 1257.44 37.9258ZM1257.44 53.4648V64.9668C1258.94 64.916 1259.9 64.679 1260.31 64.2559C1260.73 63.8327 1260.94 62.7917 1260.94 61.1328V57.2988C1260.94 55.5384 1260.75 54.472 1260.38 54.0996C1260.01 53.7272 1259.03 53.5156 1257.44 53.4648ZM1288.26 30.8926V72H1277.57V30.8926H1288.26ZM1305.32 30.8926V63.7734H1311.82V72H1294.63V30.8926H1305.32ZM1327.2 30.8926V72H1316.51V30.8926H1327.2ZM1355.11 30.8926V39.1191H1348.76V72H1338.07V39.1191H1331.75V30.8926H1355.11ZM1382.4 30.8926L1374.6 57.1211V72H1364.7V57.1211L1357.19 30.8926H1367.01C1368.55 38.8991 1369.42 44.2904 1369.6 47.0664C1370.19 42.6823 1371.18 37.291 1372.57 30.8926H1382.4ZM1422.03 54.9629C1422.03 59.0931 1421.93 62.0215 1421.73 63.748C1421.54 65.4577 1420.93 67.0234 1419.9 68.4453C1418.88 69.8672 1417.5 70.959 1415.76 71.7207C1414.01 72.4824 1411.98 72.8633 1409.66 72.8633C1407.46 72.8633 1405.48 72.5078 1403.72 71.7969C1401.98 71.069 1400.57 69.9857 1399.51 68.5469C1398.44 67.1081 1397.81 65.5423 1397.6 63.8496C1397.4 62.1569 1397.3 59.1947 1397.3 54.9629V47.9297C1397.3 43.7995 1397.39 40.8796 1397.58 39.1699C1397.78 37.4434 1398.39 35.8691 1399.41 34.4473C1400.44 33.0254 1401.83 31.9336 1403.57 31.1719C1405.31 30.4102 1407.35 30.0293 1409.66 30.0293C1411.87 30.0293 1413.84 30.3932 1415.58 31.1211C1417.34 31.832 1418.75 32.9069 1419.82 34.3457C1420.89 35.7845 1421.52 37.3503 1421.73 39.043C1421.93 40.7357 1422.03 43.6979 1422.03 47.9297V54.9629ZM1411.34 41.4551C1411.34 39.5423 1411.23 38.3236 1411.01 37.7988C1410.81 37.2572 1410.38 36.9863 1409.72 36.9863C1409.16 36.9863 1408.73 37.2064 1408.42 37.6465C1408.13 38.0697 1407.99 39.3392 1407.99 41.4551V60.6504C1407.99 63.0371 1408.08 64.5098 1408.27 65.0684C1408.47 65.627 1408.93 65.9062 1409.64 65.9062C1410.37 65.9062 1410.83 65.5846 1411.04 64.9414C1411.24 64.2982 1411.34 62.7663 1411.34 60.3457V41.4551ZM1428.12 30.8926H1446.23V39.1191H1438.81V46.9141H1445.41V54.7344H1438.81V72H1428.12V30.8926ZM1487.15 48.8184H1476.46V41.6582C1476.46 39.5762 1476.34 38.2812 1476.11 37.7734C1475.89 37.2487 1475.39 36.9863 1474.61 36.9863C1473.73 36.9863 1473.17 37.2995 1472.93 37.9258C1472.7 38.5521 1472.58 39.9062 1472.58 41.9883V61.082C1472.58 63.0794 1472.7 64.3828 1472.93 64.9922C1473.17 65.6016 1473.7 65.9062 1474.53 65.9062C1475.33 65.9062 1475.84 65.6016 1476.08 64.9922C1476.33 64.3828 1476.46 62.9525 1476.46 60.7012V55.5469H1487.15V57.1465C1487.15 61.3952 1486.85 64.4082 1486.24 66.1855C1485.64 67.9629 1484.32 69.5202 1482.25 70.8574C1480.2 72.1947 1477.67 72.8633 1474.66 72.8633C1471.53 72.8633 1468.95 72.2962 1466.91 71.1621C1464.88 70.028 1463.54 68.4622 1462.88 66.4648C1462.22 64.4505 1461.89 61.429 1461.89 57.4004V45.3906C1461.89 42.4284 1461.99 40.2109 1462.19 38.7383C1462.39 37.2487 1463 35.8184 1463.99 34.4473C1465.01 33.0762 1466.41 32.0013 1468.18 31.2227C1469.98 30.4271 1472.03 30.0293 1474.35 30.0293C1477.5 30.0293 1480.1 30.6387 1482.15 31.8574C1484.2 33.0762 1485.54 34.5996 1486.19 36.4277C1486.83 38.2389 1487.15 41.0658 1487.15 44.9082V48.8184ZM1517.49 54.9629C1517.49 59.0931 1517.39 62.0215 1517.19 63.748C1517 65.4577 1516.39 67.0234 1515.36 68.4453C1514.34 69.8672 1512.96 70.959 1511.22 71.7207C1509.48 72.4824 1507.44 72.8633 1505.13 72.8633C1502.92 72.8633 1500.94 72.5078 1499.18 71.7969C1497.44 71.069 1496.04 69.9857 1494.97 68.5469C1493.9 67.1081 1493.27 65.5423 1493.06 63.8496C1492.86 62.1569 1492.76 59.1947 1492.76 54.9629V47.9297C1492.76 43.7995 1492.85 40.8796 1493.04 39.1699C1493.24 37.4434 1493.85 35.8691 1494.87 34.4473C1495.9 33.0254 1497.29 31.9336 1499.03 31.1719C1500.77 30.4102 1502.81 30.0293 1505.13 30.0293C1507.33 30.0293 1509.3 30.3932 1511.04 31.1211C1512.8 31.832 1514.22 32.9069 1515.28 34.3457C1516.35 35.7845 1516.98 37.3503 1517.19 39.043C1517.39 40.7357 1517.49 43.6979 1517.49 47.9297V54.9629ZM1506.8 41.4551C1506.8 39.5423 1506.69 38.3236 1506.47 37.7988C1506.27 37.2572 1505.84 36.9863 1505.18 36.9863C1504.62 36.9863 1504.19 37.2064 1503.88 37.6465C1503.59 38.0697 1503.45 39.3392 1503.45 41.4551V60.6504C1503.45 63.0371 1503.54 64.5098 1503.73 65.0684C1503.93 65.627 1504.39 65.9062 1505.1 65.9062C1505.83 65.9062 1506.29 65.5846 1506.5 64.9414C1506.7 64.2982 1506.8 62.7663 1506.8 60.3457V41.4551ZM1563.8 30.8926L1559.05 72H1545.7C1544.48 65.6862 1543.4 58.5091 1542.47 50.4688C1542.05 53.9049 1541.06 61.082 1539.5 72H1526.22L1521.45 30.8926H1531.83L1532.93 45.2383L1534.04 59.0762C1534.43 51.916 1535.41 42.5215 1536.99 30.8926H1548.11C1548.26 32.0944 1548.65 36.6139 1549.28 44.4512L1550.45 60.0664C1551.04 50.1302 1552.03 40.4056 1553.42 30.8926H1563.8ZM1590.66 43.334H1580.73V40.2871C1580.73 38.8652 1580.61 37.9596 1580.35 37.5703C1580.1 37.181 1579.68 36.9863 1579.08 36.9863C1578.44 36.9863 1577.95 37.2487 1577.61 37.7734C1577.29 38.2982 1577.13 39.0938 1577.13 40.1602C1577.13 41.5312 1577.32 42.5638 1577.69 43.2578C1578.04 43.9518 1579.05 44.7897 1580.71 45.7715C1585.47 48.5983 1588.46 50.9173 1589.7 52.7285C1590.93 54.5397 1591.55 57.4596 1591.55 61.4883C1591.55 64.4167 1591.2 66.5749 1590.51 67.9629C1589.83 69.3509 1588.51 70.5189 1586.55 71.4668C1584.59 72.3978 1582.3 72.8633 1579.69 72.8633C1576.83 72.8633 1574.39 72.3216 1572.36 71.2383C1570.34 70.1549 1569.02 68.7754 1568.39 67.0996C1567.77 65.4238 1567.46 63.0456 1567.46 59.9648V57.2734H1577.38V62.2754C1577.38 63.8158 1577.52 64.806 1577.79 65.2461C1578.08 65.6862 1578.58 65.9062 1579.29 65.9062C1580 65.9062 1580.52 65.627 1580.86 65.0684C1581.22 64.5098 1581.39 63.6803 1581.39 62.5801C1581.39 60.1595 1581.06 58.5768 1580.4 57.832C1579.73 57.0872 1578.06 55.8431 1575.4 54.0996C1572.74 52.3392 1570.98 51.0612 1570.12 50.2656C1569.26 49.4701 1568.54 48.3698 1567.96 46.9648C1567.4 45.5599 1567.13 43.7656 1567.13 41.582C1567.13 38.4336 1567.52 36.1315 1568.32 34.6758C1569.13 33.2201 1570.43 32.0859 1572.23 31.2734C1574.02 30.444 1576.19 30.0293 1578.73 30.0293C1581.5 30.0293 1583.87 30.4779 1585.81 31.375C1587.78 32.2721 1589.07 33.4062 1589.7 34.7773C1590.34 36.1315 1590.66 38.4421 1590.66 41.709V43.334ZM1618.97 30.8926V72H1608.28V30.8926H1618.97ZM1647.99 43.334H1638.06V40.2871C1638.06 38.8652 1637.93 37.9596 1637.68 37.5703C1637.43 37.181 1637 36.9863 1636.41 36.9863C1635.77 36.9863 1635.28 37.2487 1634.94 37.7734C1634.62 38.2982 1634.45 39.0938 1634.45 40.1602C1634.45 41.5312 1634.64 42.5638 1635.01 43.2578C1635.37 43.9518 1636.38 44.7897 1638.04 45.7715C1642.79 48.5983 1645.79 50.9173 1647.02 52.7285C1648.26 54.5397 1648.88 57.4596 1648.88 61.4883C1648.88 64.4167 1648.53 66.5749 1647.84 67.9629C1647.16 69.3509 1645.84 70.5189 1643.87 71.4668C1641.91 72.3978 1639.63 72.8633 1637.02 72.8633C1634.16 72.8633 1631.71 72.3216 1629.68 71.2383C1627.67 70.1549 1626.35 68.7754 1625.72 67.0996C1625.09 65.4238 1624.78 63.0456 1624.78 59.9648V57.2734H1634.71V62.2754C1634.71 63.8158 1634.84 64.806 1635.12 65.2461C1635.4 65.6862 1635.9 65.9062 1636.61 65.9062C1637.32 65.9062 1637.85 65.627 1638.19 65.0684C1638.54 64.5098 1638.72 63.6803 1638.72 62.5801C1638.72 60.1595 1638.39 58.5768 1637.73 57.832C1637.05 57.0872 1635.39 55.8431 1632.73 54.0996C1630.07 52.3392 1628.31 51.0612 1627.45 50.2656C1626.58 49.4701 1625.86 48.3698 1625.29 46.9648C1624.73 45.5599 1624.45 43.7656 1624.45 41.582C1624.45 38.4336 1624.85 36.1315 1625.64 34.6758C1626.46 33.2201 1627.76 32.0859 1629.55 31.2734C1631.35 30.444 1633.52 30.0293 1636.05 30.0293C1638.83 30.0293 1641.19 30.4779 1643.14 31.375C1645.1 32.2721 1646.4 33.4062 1647.02 34.7773C1647.67 36.1315 1647.99 38.4421 1647.99 41.709V43.334ZM1665.61 30.8926H1676.27C1679.64 30.8926 1682.19 31.1549 1683.91 31.6797C1685.66 32.2044 1687.06 33.2708 1688.13 34.8789C1689.19 36.4701 1689.73 39.043 1689.73 42.5977C1689.73 45.0013 1689.35 46.6771 1688.58 47.625C1687.84 48.5729 1686.36 49.3008 1684.14 49.8086C1686.61 50.3672 1688.29 51.2982 1689.17 52.6016C1690.05 53.888 1690.49 55.8685 1690.49 58.543V62.3516C1690.49 65.1276 1690.17 67.1842 1689.52 68.5215C1688.9 69.8587 1687.89 70.7728 1686.5 71.2637C1685.11 71.7546 1682.27 72 1677.97 72H1665.61V30.8926ZM1676.29 37.9258V47.0664C1676.75 47.0495 1677.11 47.041 1677.36 47.041C1678.41 47.041 1679.08 46.7871 1679.37 46.2793C1679.65 45.7546 1679.8 44.2734 1679.8 41.8359C1679.8 40.5495 1679.68 39.6523 1679.44 39.1445C1679.21 38.6198 1678.89 38.2897 1678.5 38.1543C1678.13 38.0189 1677.39 37.9427 1676.29 37.9258ZM1676.29 53.4648V64.9668C1677.8 64.916 1678.76 64.679 1679.16 64.2559C1679.59 63.8327 1679.8 62.7917 1679.8 61.1328V57.2988C1679.8 55.5384 1679.61 54.472 1679.24 54.0996C1678.87 53.7272 1677.89 53.5156 1676.29 53.4648ZM1696.43 30.8926H1714.25V39.1191H1707.12V46.9141H1713.79V54.7344H1707.12V63.7734H1714.96V72H1696.43V30.8926ZM1741.67 30.8926V39.1191H1735.32V72H1724.63V39.1191H1718.31V30.8926H1741.67ZM1767.72 30.8926V39.1191H1761.37V72H1750.68V39.1191H1744.36V30.8926H1767.72ZM1772.24 30.8926H1790.06V39.1191H1782.93V46.9141H1789.6V54.7344H1782.93V63.7734H1790.77V72H1772.24V30.8926ZM1795.95 30.8926H1803.52C1808.56 30.8926 1811.97 31.0872 1813.75 31.4766C1815.54 31.8659 1817 32.8646 1818.12 34.4727C1819.25 36.0638 1819.82 38.6113 1819.82 42.1152C1819.82 45.3145 1819.42 47.4642 1818.62 48.5645C1817.83 49.6647 1816.26 50.3249 1813.93 50.5449C1816.04 51.0697 1817.46 51.7721 1818.19 52.6523C1818.92 53.5326 1819.37 54.3451 1819.54 55.0898C1819.72 55.8177 1819.82 57.8405 1819.82 61.1582V72H1809.89V58.3398C1809.89 56.1393 1809.71 54.7767 1809.36 54.252C1809.02 53.7272 1808.11 53.4648 1806.64 53.4648V72H1795.95V30.8926ZM1806.64 37.9258V47.0664C1807.84 47.0664 1808.68 46.9056 1809.15 46.584C1809.64 46.2454 1809.89 45.1706 1809.89 43.3594V41.0996C1809.89 39.7962 1809.65 38.9414 1809.18 38.5352C1808.72 38.1289 1807.88 37.9258 1806.64 37.9258ZM1848.02 30.8926V72H1837.33V30.8926H1848.02ZM1878.26 30.8926V72H1868.89L1863.33 53.3125V72H1854.39V30.8926H1863.33L1869.32 49.4023V30.8926H1878.26ZM1917.46 30.8926V39.1191H1911.11V72H1900.42V39.1191H1894.1V30.8926H1917.46ZM1946.56 30.8926V72H1935.87V54.7344H1932.67V72H1921.98V30.8926H1932.67V45.5938H1935.87V30.8926H1946.56ZM1952.95 30.8926H1970.78V39.1191H1963.64V46.9141H1970.32V54.7344H1963.64V63.7734H1971.49V72H1952.95V30.8926ZM1987.94 30.8926H1995.93C2001.1 30.8926 2004.58 31.1296 2006.4 31.6035C2008.22 32.0775 2009.61 32.8561 2010.56 33.9395C2011.51 35.0228 2012.1 36.2331 2012.34 37.5703C2012.57 38.8906 2012.69 41.4974 2012.69 45.3906V59.7871C2012.69 63.4772 2012.51 65.9486 2012.16 67.2012C2011.82 68.4368 2011.22 69.4102 2010.36 70.1211C2009.49 70.8151 2008.43 71.306 2007.16 71.5938C2005.89 71.8646 2003.97 72 2001.42 72H1987.94V30.8926ZM1998.63 37.9258V64.9668C2000.17 64.9668 2001.11 64.6621 2001.47 64.0527C2001.82 63.4264 2002 61.7422 2002 59V43.0293C2002 41.1673 2001.94 39.974 2001.82 39.4492C2001.71 38.9245 2001.44 38.5436 2001.01 38.3066C2000.59 38.0527 1999.79 37.9258 1998.63 37.9258ZM2018.76 30.8926H2036.58V39.1191H2029.45V46.9141H2036.13V54.7344H2029.45V63.7734H2037.29V72H2018.76V30.8926ZM2042.47 30.8926H2060.3V39.1191H2053.16V46.9141H2059.84V54.7344H2053.16V63.7734H2061.01V72H2042.47V30.8926ZM2066.18 30.8926H2076.95C2079.86 30.8926 2082.1 31.1211 2083.65 31.5781C2085.23 32.0352 2086.4 32.6953 2087.18 33.5586C2087.98 34.4219 2088.51 35.4714 2088.78 36.707C2089.07 37.9258 2089.21 39.8216 2089.21 42.3945V45.9746C2089.21 48.5983 2088.94 50.5111 2088.4 51.7129C2087.86 52.9147 2086.86 53.8372 2085.4 54.4805C2083.97 55.1237 2082.08 55.4453 2079.74 55.4453H2076.87V72H2066.18V30.8926ZM2076.87 37.9258V48.3867C2077.18 48.4036 2077.44 48.4121 2077.66 48.4121C2078.64 48.4121 2079.32 48.1751 2079.69 47.7012C2080.08 47.2103 2080.28 46.2031 2080.28 44.6797V41.3027C2080.28 39.8978 2080.06 38.9837 2079.62 38.5605C2079.18 38.1374 2078.26 37.9258 2076.87 37.9258ZM2124.1 30.8926L2130.22 72H2119.27L2118.74 64.6113H2114.9L2114.27 72H2103.2L2108.63 30.8926H2124.1ZM2118.43 57.3242C2117.89 52.6693 2117.35 46.9225 2116.81 40.084C2115.73 47.9382 2115.05 53.6849 2114.78 57.3242H2118.43ZM2157.99 30.8926V72H2148.62L2143.06 53.3125V72H2134.12V30.8926H2143.06L2149.05 49.4023V30.8926H2157.99ZM2164.39 30.8926H2172.38C2177.55 30.8926 2181.03 31.1296 2182.85 31.6035C2184.67 32.0775 2186.06 32.8561 2187.01 33.9395C2187.96 35.0228 2188.55 36.2331 2188.79 37.5703C2189.02 38.8906 2189.14 41.4974 2189.14 45.3906V59.7871C2189.14 63.4772 2188.96 65.9486 2188.61 67.2012C2188.27 68.4368 2187.67 69.4102 2186.81 70.1211C2185.94 70.8151 2184.88 71.306 2183.61 71.5938C2182.34 71.8646 2180.43 72 2177.87 72H2164.39V30.8926ZM2175.08 37.9258V64.9668C2176.62 64.9668 2177.56 64.6621 2177.92 64.0527C2178.28 63.4264 2178.45 61.7422 2178.45 59V43.0293C2178.45 41.1673 2178.39 39.974 2178.28 39.4492C2178.16 38.9245 2177.89 38.5436 2177.46 38.3066C2177.04 38.0527 2176.24 37.9258 2175.08 37.9258ZM2231.06 30.8926V72H2220.37V54.7344H2217.17V72H2206.48V30.8926H2217.17V45.5938H2220.37V30.8926H2231.06ZM2248.14 30.8926V72H2237.45V30.8926H2248.14ZM2279.04 46.0254H2268.35V42.293C2268.35 39.9401 2268.25 38.4674 2268.05 37.875C2267.85 37.2826 2267.36 36.9863 2266.6 36.9863C2265.94 36.9863 2265.49 37.2402 2265.26 37.748C2265.02 38.2559 2264.9 39.5592 2264.9 41.6582V61.3867C2264.9 63.2318 2265.02 64.4505 2265.26 65.043C2265.49 65.6185 2265.97 65.9062 2266.68 65.9062C2267.46 65.9062 2267.98 65.5762 2268.25 64.916C2268.54 64.2559 2268.68 62.9694 2268.68 61.0566V56.1816H2266.53V49.9355H2279.04V72H2272.31L2271.32 69.0547C2270.6 70.3242 2269.67 71.2806 2268.56 71.9238C2267.46 72.5501 2266.15 72.8633 2264.65 72.8633C2262.85 72.8633 2261.17 72.4316 2259.59 71.5684C2258.04 70.6882 2256.85 69.6048 2256.04 68.3184C2255.23 67.0319 2254.72 65.6862 2254.52 64.2812C2254.31 62.8594 2254.21 60.735 2254.21 57.9082V45.6953C2254.21 41.7682 2254.42 38.916 2254.85 37.1387C2255.27 35.3613 2256.48 33.7363 2258.48 32.2637C2260.49 30.7741 2263.09 30.0293 2266.27 30.0293C2269.4 30.0293 2272 30.6725 2274.07 31.959C2276.13 33.2454 2277.48 34.7773 2278.1 36.5547C2278.73 38.3151 2279.04 40.8796 2279.04 44.248V46.0254ZM2309.86 30.8926V72H2299.18V54.7344H2295.98V72H2285.29V30.8926H2295.98V45.5938H2299.18V30.8926H2309.86ZM2327.53 30.8926H2345.64V39.1191H2338.22V46.9141H2344.82V54.7344H2338.22V72H2327.53V30.8926ZM2350.33 30.8926H2357.9C2362.94 30.8926 2366.35 31.0872 2368.13 31.4766C2369.92 31.8659 2371.38 32.8646 2372.5 34.4727C2373.63 36.0638 2374.2 38.6113 2374.2 42.1152C2374.2 45.3145 2373.8 47.4642 2373.01 48.5645C2372.21 49.6647 2370.64 50.3249 2368.31 50.5449C2370.42 51.0697 2371.85 51.7721 2372.57 52.6523C2373.3 53.5326 2373.75 54.3451 2373.92 55.0898C2374.11 55.8177 2374.2 57.8405 2374.2 61.1582V72H2364.27V58.3398C2364.27 56.1393 2364.09 54.7767 2363.74 54.252C2363.4 53.7272 2362.49 53.4648 2361.02 53.4648V72H2350.33V30.8926ZM2361.02 37.9258V47.0664C2362.22 47.0664 2363.06 46.9056 2363.53 46.584C2364.03 46.2454 2364.27 45.1706 2364.27 43.3594V41.0996C2364.27 39.7962 2364.03 38.9414 2363.56 38.5352C2363.1 38.1289 2362.26 37.9258 2361.02 37.9258ZM2380.44 30.8926H2398.27V39.1191H2391.13V46.9141H2397.81V54.7344H2391.13V63.7734H2398.98V72H2380.44V30.8926ZM2428.61 72V76.9766H2420.53C2418.59 76.9766 2417.21 76.8242 2416.42 76.5195C2415.62 76.2318 2415.08 75.7917 2414.79 75.1992C2414.52 74.6068 2414.39 73.5404 2414.39 72C2411.97 71.9323 2409.89 71.2975 2408.14 70.0957C2406.4 68.8939 2405.25 67.3704 2404.69 65.5254C2404.13 63.6634 2403.85 60.8874 2403.85 57.1973V44.4766C2403.85 41.6836 2404.01 39.5592 2404.33 38.1035C2404.67 36.6309 2405.36 35.2513 2406.39 33.9648C2407.42 32.6615 2408.75 31.6797 2410.38 31.0195C2412 30.3594 2413.8 30.0293 2415.78 30.0293C2418.17 30.0293 2420.3 30.4355 2422.16 31.248C2424.04 32.0605 2425.43 33.0931 2426.35 34.3457C2427.28 35.5983 2427.88 36.9017 2428.15 38.2559C2428.44 39.5931 2428.58 41.5905 2428.58 44.248V57.6035C2428.58 61.2598 2428.4 63.7396 2428.05 65.043C2427.69 66.3464 2427.01 67.3874 2425.99 68.166C2424.99 68.9277 2423.66 69.5117 2421.98 69.918C2422.03 70.832 2422.22 71.4076 2422.54 71.6445C2422.88 71.8815 2423.66 72 2424.9 72H2428.61ZM2417.89 41.4551C2417.89 39.5423 2417.78 38.3236 2417.56 37.7988C2417.36 37.2572 2416.93 36.9863 2416.27 36.9863C2415.71 36.9863 2415.28 37.2064 2414.97 37.6465C2414.68 38.0697 2414.54 39.3392 2414.54 41.4551V60.6504C2414.54 63.0371 2414.63 64.5098 2414.82 65.0684C2415.02 65.627 2415.48 65.9062 2416.19 65.9062C2416.92 65.9062 2417.38 65.5846 2417.59 64.9414C2417.79 64.2982 2417.89 62.7663 2417.89 60.3457V41.4551ZM2458.97 30.8926V58.3652C2458.97 61.4798 2458.87 63.6719 2458.67 64.9414C2458.46 66.194 2457.86 67.4889 2456.86 68.8262C2455.87 70.1465 2454.55 71.1536 2452.9 71.8477C2451.28 72.5247 2449.36 72.8633 2447.14 72.8633C2444.69 72.8633 2442.52 72.457 2440.64 71.6445C2438.76 70.832 2437.36 69.7741 2436.43 68.4707C2435.49 67.1673 2434.94 65.7962 2434.77 64.3574C2434.61 62.9017 2434.52 59.8548 2434.52 55.2168V30.8926H2445.21V61.7168C2445.21 63.5111 2445.3 64.6621 2445.49 65.1699C2445.69 65.6608 2446.09 65.9062 2446.68 65.9062C2447.36 65.9062 2447.79 65.6354 2447.98 65.0938C2448.18 64.5352 2448.28 63.2318 2448.28 61.1836V30.8926H2458.97ZM2465.19 30.8926H2483.01V39.1191H2475.88V46.9141H2482.56V54.7344H2475.88V63.7734H2483.73V72H2465.19V30.8926ZM2512.77 30.8926V72H2503.4L2497.84 53.3125V72H2488.9V30.8926H2497.84L2503.83 49.4023V30.8926H2512.77ZM2544.13 48.8184H2533.44V41.6582C2533.44 39.5762 2533.32 38.2812 2533.08 37.7734C2532.86 37.2487 2532.36 36.9863 2531.58 36.9863C2530.7 36.9863 2530.14 37.2995 2529.91 37.9258C2529.67 38.5521 2529.55 39.9062 2529.55 41.9883V61.082C2529.55 63.0794 2529.67 64.3828 2529.91 64.9922C2530.14 65.6016 2530.68 65.9062 2531.51 65.9062C2532.3 65.9062 2532.82 65.6016 2533.06 64.9922C2533.31 64.3828 2533.44 62.9525 2533.44 60.7012V55.5469H2544.13V57.1465C2544.13 61.3952 2543.82 64.4082 2543.21 66.1855C2542.62 67.9629 2541.29 69.5202 2539.23 70.8574C2537.18 72.1947 2534.65 72.8633 2531.63 72.8633C2528.5 72.8633 2525.92 72.2962 2523.89 71.1621C2521.86 70.028 2520.51 68.4622 2519.85 66.4648C2519.19 64.4505 2518.86 61.429 2518.86 57.4004V45.3906C2518.86 42.4284 2518.96 40.2109 2519.17 38.7383C2519.37 37.2487 2519.97 35.8184 2520.97 34.4473C2521.99 33.0762 2523.38 32.0013 2525.16 31.2227C2526.95 30.4271 2529.01 30.0293 2531.33 30.0293C2534.48 30.0293 2537.08 30.6387 2539.12 31.8574C2541.17 33.0762 2542.52 34.5996 2543.16 36.4277C2543.8 38.2389 2544.13 41.0658 2544.13 44.9082V48.8184ZM2572.82 30.8926L2565.02 57.1211V72H2555.12V57.1211L2547.6 30.8926H2557.43C2558.97 38.8991 2559.83 44.2904 2560.02 47.0664C2560.61 42.6823 2561.6 37.291 2562.99 30.8926H2572.82ZM2588.02 30.8926H2595.59C2600.63 30.8926 2604.04 31.0872 2605.82 31.4766C2607.61 31.8659 2609.07 32.8646 2610.19 34.4727C2611.32 36.0638 2611.89 38.6113 2611.89 42.1152C2611.89 45.3145 2611.49 47.4642 2610.69 48.5645C2609.9 49.6647 2608.33 50.3249 2606 50.5449C2608.11 51.0697 2609.53 51.7721 2610.26 52.6523C2610.99 53.5326 2611.44 54.3451 2611.61 55.0898C2611.79 55.8177 2611.89 57.8405 2611.89 61.1582V72H2601.96V58.3398C2601.96 56.1393 2601.78 54.7767 2601.43 54.252C2601.09 53.7272 2600.18 53.4648 2598.71 53.4648V72H2588.02V30.8926ZM2598.71 37.9258V47.0664C2599.91 47.0664 2600.75 46.9056 2601.22 46.584C2601.71 46.2454 2601.96 45.1706 2601.96 43.3594V41.0996C2601.96 39.7962 2601.72 38.9414 2601.25 38.5352C2600.79 38.1289 2599.95 37.9258 2598.71 37.9258ZM2636.59 30.8926L2642.71 72H2631.77L2631.23 64.6113H2627.4L2626.76 72H2615.69L2621.13 30.8926H2636.59ZM2630.93 57.3242C2630.39 52.6693 2629.84 46.9225 2629.3 40.084C2628.22 47.9382 2627.54 53.6849 2627.27 57.3242H2630.93ZM2670.48 30.8926V72H2661.12L2655.56 53.3125V72H2646.62V30.8926H2655.56L2661.55 49.4023V30.8926H2670.48ZM2701.41 46.0254H2690.72V42.293C2690.72 39.9401 2690.62 38.4674 2690.41 37.875C2690.21 37.2826 2689.73 36.9863 2688.97 36.9863C2688.31 36.9863 2687.86 37.2402 2687.62 37.748C2687.38 38.2559 2687.27 39.5592 2687.27 41.6582V61.3867C2687.27 63.2318 2687.38 64.4505 2687.62 65.043C2687.86 65.6185 2688.33 65.9062 2689.04 65.9062C2689.82 65.9062 2690.35 65.5762 2690.62 64.916C2690.91 64.2559 2691.05 62.9694 2691.05 61.0566V56.1816H2688.89V49.9355H2701.41V72H2694.68L2693.69 69.0547C2692.96 70.3242 2692.04 71.2806 2690.92 71.9238C2689.82 72.5501 2688.52 72.8633 2687.01 72.8633C2685.22 72.8633 2683.53 72.4316 2681.96 71.5684C2680.4 70.6882 2679.22 69.6048 2678.4 68.3184C2677.59 67.0319 2677.08 65.6862 2676.88 64.2812C2676.68 62.8594 2676.58 60.735 2676.58 57.9082V45.6953C2676.58 41.7682 2676.79 38.916 2677.21 37.1387C2677.63 35.3613 2678.84 33.7363 2680.84 32.2637C2682.86 30.7741 2685.45 30.0293 2688.64 30.0293C2691.77 30.0293 2694.37 30.6725 2696.43 31.959C2698.5 33.2454 2699.84 34.7773 2700.47 36.5547C2701.1 38.3151 2701.41 40.8796 2701.41 44.248V46.0254ZM2707.65 30.8926H2725.48V39.1191H2718.34V46.9141H2725.02V54.7344H2718.34V63.7734H2726.19V72H2707.65V30.8926ZM2754.01 43.334H2744.09V40.2871C2744.09 38.8652 2743.96 37.9596 2743.71 37.5703C2743.45 37.181 2743.03 36.9863 2742.44 36.9863C2741.79 36.9863 2741.3 37.2487 2740.96 37.7734C2740.64 38.2982 2740.48 39.0938 2740.48 40.1602C2740.48 41.5312 2740.67 42.5638 2741.04 43.2578C2741.39 43.9518 2742.4 44.7897 2744.06 45.7715C2748.82 48.5983 2751.81 50.9173 2753.05 52.7285C2754.28 54.5397 2754.9 57.4596 2754.9 61.4883C2754.9 64.4167 2754.56 66.5749 2753.86 67.9629C2753.18 69.3509 2751.86 70.5189 2749.9 71.4668C2747.94 72.3978 2745.65 72.8633 2743.05 72.8633C2740.18 72.8633 2737.74 72.3216 2735.71 71.2383C2733.69 70.1549 2732.37 68.7754 2731.75 67.0996C2731.12 65.4238 2730.81 63.0456 2730.81 59.9648V57.2734H2740.73V62.2754C2740.73 63.8158 2740.87 64.806 2741.14 65.2461C2741.43 65.6862 2741.93 65.9062 2742.64 65.9062C2743.35 65.9062 2743.87 65.627 2744.21 65.0684C2744.57 64.5098 2744.75 63.6803 2744.75 62.5801C2744.75 60.1595 2744.42 58.5768 2743.76 57.832C2743.08 57.0872 2741.41 55.8431 2738.75 54.0996C2736.1 52.3392 2734.34 51.0612 2733.47 50.2656C2732.61 49.4701 2731.89 48.3698 2731.31 46.9648C2730.76 45.5599 2730.48 43.7656 2730.48 41.582C2730.48 38.4336 2730.87 36.1315 2731.67 34.6758C2732.48 33.2201 2733.79 32.0859 2735.58 31.2734C2737.37 30.444 2739.54 30.0293 2742.08 30.0293C2744.86 30.0293 2747.22 30.4779 2749.16 31.375C2751.13 32.2721 2752.42 33.4062 2753.05 34.7773C2753.69 36.1315 2754.01 38.4421 2754.01 41.709V43.334ZM2766.89 63.6211V72H2759.14V63.6211H2766.89ZM2808.27 48.8184H2797.58V41.6582C2797.58 39.5762 2797.46 38.2812 2797.22 37.7734C2797 37.2487 2796.5 36.9863 2795.72 36.9863C2794.84 36.9863 2794.29 37.2995 2794.05 37.9258C2793.81 38.5521 2793.69 39.9062 2793.69 41.9883V61.082C2793.69 63.0794 2793.81 64.3828 2794.05 64.9922C2794.29 65.6016 2794.82 65.9062 2795.65 65.9062C2796.44 65.9062 2796.96 65.6016 2797.2 64.9922C2797.45 64.3828 2797.58 62.9525 2797.58 60.7012V55.5469H2808.27V57.1465C2808.27 61.3952 2807.96 64.4082 2807.35 66.1855C2806.76 67.9629 2805.43 69.5202 2803.37 70.8574C2801.32 72.1947 2798.79 72.8633 2795.78 72.8633C2792.64 72.8633 2790.06 72.2962 2788.03 71.1621C2786 70.028 2784.65 68.4622 2783.99 66.4648C2783.33 64.4505 2783 61.429 2783 57.4004V45.3906C2783 42.4284 2783.11 40.2109 2783.31 38.7383C2783.51 37.2487 2784.11 35.8184 2785.11 34.4473C2786.13 33.0762 2787.52 32.0013 2789.3 31.2227C2791.1 30.4271 2793.15 30.0293 2795.47 30.0293C2798.62 30.0293 2801.22 30.6387 2803.27 31.8574C2805.31 33.0762 2806.66 34.5996 2807.3 36.4277C2807.95 38.2389 2808.27 41.0658 2808.27 44.9082V48.8184ZM2838.61 54.9629C2838.61 59.0931 2838.51 62.0215 2838.3 63.748C2838.12 65.4577 2837.51 67.0234 2836.47 68.4453C2835.46 69.8672 2834.08 70.959 2832.34 71.7207C2830.59 72.4824 2828.56 72.8633 2826.24 72.8633C2824.04 72.8633 2822.06 72.5078 2820.3 71.7969C2818.56 71.069 2817.15 69.9857 2816.09 68.5469C2815.02 67.1081 2814.38 65.5423 2814.18 63.8496C2813.98 62.1569 2813.88 59.1947 2813.88 54.9629V47.9297C2813.88 43.7995 2813.97 40.8796 2814.16 39.1699C2814.36 37.4434 2814.97 35.8691 2815.98 34.4473C2817.02 33.0254 2818.4 31.9336 2820.15 31.1719C2821.89 30.4102 2823.92 30.0293 2826.24 30.0293C2828.44 30.0293 2830.41 30.3932 2832.16 31.1211C2833.92 31.832 2835.33 32.9069 2836.4 34.3457C2837.46 35.7845 2838.1 37.3503 2838.3 39.043C2838.51 40.7357 2838.61 43.6979 2838.61 47.9297V54.9629ZM2827.92 41.4551C2827.92 39.5423 2827.81 38.3236 2827.59 37.7988C2827.38 37.2572 2826.95 36.9863 2826.29 36.9863C2825.73 36.9863 2825.3 37.2064 2825 37.6465C2824.71 38.0697 2824.57 39.3392 2824.57 41.4551V60.6504C2824.57 63.0371 2824.66 64.5098 2824.85 65.0684C2825.05 65.627 2825.51 65.9062 2826.22 65.9062C2826.94 65.9062 2827.41 65.5846 2827.61 64.9414C2827.82 64.2982 2827.92 62.7663 2827.92 60.3457V41.4551ZM2877.68 30.8926V72H2868.34V44.248L2864.61 72H2857.98L2854.04 44.8828V72H2844.7V30.8926H2858.54C2858.94 33.3639 2859.37 36.2754 2859.83 39.627L2861.3 50.0879L2863.74 30.8926H2877.68ZM2884.05 30.8926H2894.82C2897.73 30.8926 2899.96 31.1211 2901.52 31.5781C2903.1 32.0352 2904.27 32.6953 2905.05 33.5586C2905.85 34.4219 2906.38 35.4714 2906.65 36.707C2906.94 37.9258 2907.08 39.8216 2907.08 42.3945V45.9746C2907.08 48.5983 2906.81 50.5111 2906.27 51.7129C2905.73 52.9147 2904.73 53.8372 2903.27 54.4805C2901.83 55.1237 2899.95 55.4453 2897.61 55.4453H2894.74V72H2884.05V30.8926ZM2894.74 37.9258V48.3867C2895.05 48.4036 2895.31 48.4121 2895.53 48.4121C2896.51 48.4121 2897.19 48.1751 2897.56 47.7012C2897.95 47.2103 2898.14 46.2031 2898.14 44.6797V41.3027C2898.14 39.8978 2897.92 38.9837 2897.48 38.5605C2897.04 38.1374 2896.13 37.9258 2894.74 37.9258ZM2930.69 30.8926L2936.81 72H2925.87L2925.34 64.6113H2921.5L2920.87 72H2909.8L2915.23 30.8926H2930.69ZM2925.03 57.3242C2924.49 52.6693 2923.95 46.9225 2923.41 40.084C2922.32 47.9382 2921.65 53.6849 2921.37 57.3242H2925.03ZM2940.72 30.8926H2948.29C2953.33 30.8926 2956.74 31.0872 2958.52 31.4766C2960.31 31.8659 2961.77 32.8646 2962.89 34.4727C2964.02 36.0638 2964.59 38.6113 2964.59 42.1152C2964.59 45.3145 2964.19 47.4642 2963.39 48.5645C2962.6 49.6647 2961.03 50.3249 2958.7 50.5449C2960.81 51.0697 2962.23 51.7721 2962.96 52.6523C2963.69 53.5326 2964.14 54.3451 2964.31 55.0898C2964.49 55.8177 2964.59 57.8405 2964.59 61.1582V72H2954.66V58.3398C2954.66 56.1393 2954.48 54.7767 2954.13 54.252C2953.79 53.7272 2952.88 53.4648 2951.41 53.4648V72H2940.72V30.8926ZM2951.41 37.9258V47.0664C2952.61 47.0664 2953.45 46.9056 2953.92 46.584C2954.41 46.2454 2954.66 45.1706 2954.66 43.3594V41.0996C2954.66 39.7962 2954.42 38.9414 2953.95 38.5352C2953.49 38.1289 2952.65 37.9258 2951.41 37.9258ZM2970.83 30.8926H2988.66V39.1191H2981.52V46.9141H2988.2V54.7344H2981.52V63.7734H2989.37V72H2970.83V30.8926ZM2994.54 30.8926H3002.54C3007.71 30.8926 3011.19 31.1296 3013 31.6035C3014.83 32.0775 3016.22 32.8561 3017.17 33.9395C3018.12 35.0228 3018.71 36.2331 3018.94 37.5703C3019.18 38.8906 3019.3 41.4974 3019.3 45.3906V59.7871C3019.3 63.4772 3019.12 65.9486 3018.77 67.2012C3018.43 68.4368 3017.83 69.4102 3016.96 70.1211C3016.1 70.8151 3015.03 71.306 3013.77 71.5938C3012.5 71.8646 3010.58 72 3008.03 72H2994.54V30.8926ZM3005.23 37.9258V64.9668C3006.77 64.9668 3007.72 64.6621 3008.08 64.0527C3008.43 63.4264 3008.61 61.7422 3008.61 59V43.0293C3008.61 41.1673 3008.55 39.974 3008.43 39.4492C3008.31 38.9245 3008.04 38.5436 3007.62 38.3066C3007.2 38.0527 3006.4 37.9258 3005.23 37.9258ZM3058.17 30.8926V39.1191H3051.82V72H3041.13V39.1191H3034.81V30.8926H3058.17ZM3087.11 54.9629C3087.11 59.0931 3087.01 62.0215 3086.81 63.748C3086.62 65.4577 3086.01 67.0234 3084.98 68.4453C3083.96 69.8672 3082.58 70.959 3080.84 71.7207C3079.1 72.4824 3077.07 72.8633 3074.75 72.8633C3072.55 72.8633 3070.57 72.5078 3068.81 71.7969C3067.06 71.069 3065.66 69.9857 3064.59 68.5469C3063.52 67.1081 3062.89 65.5423 3062.69 63.8496C3062.48 62.1569 3062.38 59.1947 3062.38 54.9629V47.9297C3062.38 43.7995 3062.48 40.8796 3062.66 39.1699C3062.86 37.4434 3063.47 35.8691 3064.49 34.4473C3065.52 33.0254 3066.91 31.9336 3068.65 31.1719C3070.4 30.4102 3072.43 30.0293 3074.75 30.0293C3076.95 30.0293 3078.92 30.3932 3080.66 31.1211C3082.42 31.832 3083.84 32.9069 3084.9 34.3457C3085.97 35.7845 3086.6 37.3503 3086.81 39.043C3087.01 40.7357 3087.11 43.6979 3087.11 47.9297V54.9629ZM3076.42 41.4551C3076.42 39.5423 3076.31 38.3236 3076.09 37.7988C3075.89 37.2572 3075.46 36.9863 3074.8 36.9863C3074.24 36.9863 3073.81 37.2064 3073.5 37.6465C3073.22 38.0697 3073.07 39.3392 3073.07 41.4551V60.6504C3073.07 63.0371 3073.16 64.5098 3073.35 65.0684C3073.55 65.627 3074.01 65.9062 3074.72 65.9062C3075.45 65.9062 3075.92 65.5846 3076.12 64.9414C3076.32 64.2982 3076.42 62.7663 3076.42 60.3457V41.4551ZM3126.01 30.8926V39.1191H3119.66V72H3108.97V39.1191H3102.65V30.8926H3126.01ZM3155.1 30.8926V72H3144.41V54.7344H3141.21V72H3130.52V30.8926H3141.21V45.5938H3144.41V30.8926H3155.1ZM3161.5 30.8926H3179.32V39.1191H3172.19V46.9141H3178.87V54.7344H3172.19V63.7734H3180.03V72H3161.5V30.8926ZM3221.06 30.8926V72H3210.37V54.7344H3207.17V72H3196.48V30.8926H3207.17V45.5938H3210.37V30.8926H3221.06ZM3227.46 30.8926H3245.28V39.1191H3238.15V46.9141H3244.82V54.7344H3238.15V63.7734H3245.99V72H3227.46V30.8926ZM3269.63 30.8926L3275.75 72H3264.81L3264.27 64.6113H3260.44L3259.8 72H3248.73L3254.17 30.8926H3269.63ZM3263.97 57.3242C3263.43 52.6693 3262.88 46.9225 3262.34 40.084C3261.26 47.9382 3260.58 53.6849 3260.31 57.3242H3263.97ZM3279.66 30.8926H3287.22C3292.27 30.8926 3295.68 31.0872 3297.46 31.4766C3299.25 31.8659 3300.71 32.8646 3301.82 34.4727C3302.96 36.0638 3303.52 38.6113 3303.52 42.1152C3303.52 45.3145 3303.13 47.4642 3302.33 48.5645C3301.53 49.6647 3299.97 50.3249 3297.63 50.5449C3299.75 51.0697 3301.17 51.7721 3301.9 52.6523C3302.63 53.5326 3303.08 54.3451 3303.24 55.0898C3303.43 55.8177 3303.52 57.8405 3303.52 61.1582V72H3293.6V58.3398C3293.6 56.1393 3293.42 54.7767 3293.06 54.252C3292.72 53.7272 3291.82 53.4648 3290.35 53.4648V72H3279.66V30.8926ZM3290.35 37.9258V47.0664C3291.55 47.0664 3292.39 46.9056 3292.86 46.584C3293.35 46.2454 3293.6 45.1706 3293.6 43.3594V41.0996C3293.6 39.7962 3293.36 38.9414 3292.89 38.5352C3292.43 38.1289 3291.58 37.9258 3290.35 37.9258ZM3320.46 30.8926V72H3309.77V30.8926H3320.46ZM3350.7 30.8926V72H3341.33L3335.77 53.3125V72H3326.83V30.8926H3335.77L3341.76 49.4023V30.8926H3350.7ZM3381.62 46.0254H3370.93V42.293C3370.93 39.9401 3370.83 38.4674 3370.63 37.875C3370.42 37.2826 3369.94 36.9863 3369.18 36.9863C3368.52 36.9863 3368.07 37.2402 3367.83 37.748C3367.6 38.2559 3367.48 39.5592 3367.48 41.6582V61.3867C3367.48 63.2318 3367.6 64.4505 3367.83 65.043C3368.07 65.6185 3368.54 65.9062 3369.25 65.9062C3370.03 65.9062 3370.56 65.5762 3370.83 64.916C3371.12 64.2559 3371.26 62.9694 3371.26 61.0566V56.1816H3369.1V49.9355H3381.62V72H3374.89L3373.9 69.0547C3373.17 70.3242 3372.25 71.2806 3371.13 71.9238C3370.03 72.5501 3368.73 72.8633 3367.22 72.8633C3365.43 72.8633 3363.74 72.4316 3362.17 71.5684C3360.61 70.6882 3359.43 69.6048 3358.62 68.3184C3357.8 67.0319 3357.3 65.6862 3357.09 64.2812C3356.89 62.8594 3356.79 60.735 3356.79 57.9082V45.6953C3356.79 41.7682 3357 38.916 3357.42 37.1387C3357.85 35.3613 3359.06 33.7363 3361.05 32.2637C3363.07 30.7741 3365.67 30.0293 3368.85 30.0293C3371.98 30.0293 3374.58 30.6725 3376.64 31.959C3378.71 33.2454 3380.05 34.7773 3380.68 36.5547C3381.31 38.3151 3381.62 40.8796 3381.62 44.248V46.0254ZM3423.56 54.9629C3423.56 59.0931 3423.46 62.0215 3423.26 63.748C3423.07 65.4577 3422.46 67.0234 3421.43 68.4453C3420.41 69.8672 3419.03 70.959 3417.29 71.7207C3415.55 72.4824 3413.51 72.8633 3411.2 72.8633C3408.99 72.8633 3407.01 72.5078 3405.25 71.7969C3403.51 71.069 3402.11 69.9857 3401.04 68.5469C3399.97 67.1081 3399.34 65.5423 3399.13 63.8496C3398.93 62.1569 3398.83 59.1947 3398.83 54.9629V47.9297C3398.83 43.7995 3398.92 40.8796 3399.11 39.1699C3399.31 37.4434 3399.92 35.8691 3400.94 34.4473C3401.97 33.0254 3403.36 31.9336 3405.1 31.1719C3406.85 30.4102 3408.88 30.0293 3411.2 30.0293C3413.4 30.0293 3415.37 30.3932 3417.11 31.1211C3418.87 31.832 3420.29 32.9069 3421.35 34.3457C3422.42 35.7845 3423.05 37.3503 3423.26 39.043C3423.46 40.7357 3423.56 43.6979 3423.56 47.9297V54.9629ZM3412.87 41.4551C3412.87 39.5423 3412.76 38.3236 3412.54 37.7988C3412.34 37.2572 3411.91 36.9863 3411.25 36.9863C3410.69 36.9863 3410.26 37.2064 3409.95 37.6465C3409.66 38.0697 3409.52 39.3392 3409.52 41.4551V60.6504C3409.52 63.0371 3409.61 64.5098 3409.8 65.0684C3410 65.627 3410.46 65.9062 3411.17 65.9062C3411.9 65.9062 3412.36 65.5846 3412.57 64.9414C3412.77 64.2982 3412.87 62.7663 3412.87 60.3457V41.4551ZM3429.65 30.8926H3447.76V39.1191H3440.34V46.9141H3446.94V54.7344H3440.34V72H3429.65V30.8926ZM3488.3 30.8926V72H3477.61V54.7344H3474.41V72H3463.72V30.8926H3474.41V45.5938H3477.61V30.8926H3488.3ZM3519 30.8926V58.3652C3519 61.4798 3518.89 63.6719 3518.69 64.9414C3518.49 66.194 3517.89 67.4889 3516.89 68.8262C3515.89 70.1465 3514.57 71.1536 3512.93 71.8477C3511.3 72.5247 3509.38 72.8633 3507.16 72.8633C3504.71 72.8633 3502.54 72.457 3500.66 71.6445C3498.78 70.832 3497.38 69.7741 3496.45 68.4707C3495.52 67.1673 3494.97 65.7962 3494.8 64.3574C3494.63 62.9017 3494.54 59.8548 3494.54 55.2168V30.8926H3505.23V61.7168C3505.23 63.5111 3505.33 64.6621 3505.51 65.1699C3505.72 65.6608 3506.11 65.9062 3506.71 65.9062C3507.38 65.9062 3507.82 65.6354 3508 65.0938C3508.2 64.5352 3508.31 63.2318 3508.31 61.1836V30.8926H3519ZM3558.2 30.8926V72H3548.85V44.248L3545.12 72H3538.49L3534.56 44.8828V72H3525.21V30.8926H3539.05C3539.46 33.3639 3539.89 36.2754 3540.35 39.627L3541.82 50.0879L3544.26 30.8926H3558.2ZM3583.03 30.8926L3589.15 72H3578.2L3577.67 64.6113H3573.84L3573.2 72H3562.13L3567.56 30.8926H3583.03ZM3577.36 57.3242C3576.82 52.6693 3576.28 46.9225 3575.74 40.084C3574.66 47.9382 3573.98 53.6849 3573.71 57.3242H3577.36ZM3616.92 30.8926V72H3607.55L3601.99 53.3125V72H3593.05V30.8926H3601.99L3607.98 49.4023V30.8926H3616.92ZM3645.97 43.334H3636.04V40.2871C3636.04 38.8652 3635.91 37.9596 3635.66 37.5703C3635.4 37.181 3634.98 36.9863 3634.39 36.9863C3633.74 36.9863 3633.25 37.2487 3632.92 37.7734C3632.59 38.2982 3632.43 39.0938 3632.43 40.1602C3632.43 41.5312 3632.62 42.5638 3632.99 43.2578C3633.35 43.9518 3634.35 44.7897 3636.01 45.7715C3640.77 48.5983 3643.77 50.9173 3645 52.7285C3646.24 54.5397 3646.85 57.4596 3646.85 61.4883C3646.85 64.4167 3646.51 66.5749 3645.81 67.9629C3645.14 69.3509 3643.82 70.5189 3641.85 71.4668C3639.89 72.3978 3637.6 72.8633 3635 72.8633C3632.14 72.8633 3629.69 72.3216 3627.66 71.2383C3625.65 70.1549 3624.33 68.7754 3623.7 67.0996C3623.07 65.4238 3622.76 63.0456 3622.76 59.9648V57.2734H3632.69V62.2754C3632.69 63.8158 3632.82 64.806 3633.09 65.2461C3633.38 65.6862 3633.88 65.9062 3634.59 65.9062C3635.3 65.9062 3635.83 65.627 3636.17 65.0684C3636.52 64.5098 3636.7 63.6803 3636.7 62.5801C3636.7 60.1595 3636.37 58.5768 3635.71 57.832C3635.03 57.0872 3633.36 55.8431 3630.71 54.0996C3628.05 52.3392 3626.29 51.0612 3625.43 50.2656C3624.56 49.4701 3623.84 48.3698 3623.27 46.9648C3622.71 45.5599 3622.43 43.7656 3622.43 41.582C3622.43 38.4336 3622.83 36.1315 3623.62 34.6758C3624.44 33.2201 3625.74 32.0859 3627.53 31.2734C3629.33 30.444 3631.49 30.0293 3634.03 30.0293C3636.81 30.0293 3639.17 30.4779 3641.12 31.375C3643.08 32.2721 3644.38 33.4062 3645 34.7773C3645.64 36.1315 3645.97 38.4421 3645.97 41.709V43.334ZM3657.97 63.9512V67.6328C3657.97 69.5625 3657.75 71.1452 3657.29 72.3809C3656.83 73.6165 3656.04 74.666 3654.9 75.5293C3653.78 76.3926 3652.52 76.9681 3651.09 77.2559V74.3105C3652.11 73.735 3652.68 72.9648 3652.82 72H3651.09V63.9512H3657.97ZM3695.93 30.8926V39.1191H3689.58V72H3678.89V39.1191H3672.57V30.8926H3695.93ZM3725.02 30.8926V72H3714.34V54.7344H3711.14V72H3700.45V30.8926H3711.14V45.5938H3714.34V30.8926H3725.02ZM3731.42 30.8926H3749.25V39.1191H3742.11V46.9141H3748.79V54.7344H3742.11V63.7734H3749.96V72H3731.42V30.8926ZM3790.98 30.8926V72H3780.29V54.7344H3777.09V72H3766.41V30.8926H3777.09V45.5938H3780.29V30.8926H3790.98ZM3797.38 30.8926H3815.2V39.1191H3808.07V46.9141H3814.75V54.7344H3808.07V63.7734H3815.91V72H3797.38V30.8926ZM3839.55 30.8926L3845.67 72H3834.73L3834.19 64.6113H3830.36L3829.73 72H3818.66L3824.09 30.8926H3839.55ZM3833.89 57.3242C3833.35 52.6693 3832.81 46.9225 3832.26 40.084C3831.18 47.9382 3830.5 53.6849 3830.23 57.3242H3833.89ZM3849.58 30.8926H3857.15C3862.19 30.8926 3865.6 31.0872 3867.38 31.4766C3869.17 31.8659 3870.63 32.8646 3871.74 34.4727C3872.88 36.0638 3873.45 38.6113 3873.45 42.1152C3873.45 45.3145 3873.05 47.4642 3872.25 48.5645C3871.46 49.6647 3869.89 50.3249 3867.56 50.5449C3869.67 51.0697 3871.09 51.7721 3871.82 52.6523C3872.55 53.5326 3873 54.3451 3873.17 55.0898C3873.35 55.8177 3873.45 57.8405 3873.45 61.1582V72H3863.52V58.3398C3863.52 56.1393 3863.34 54.7767 3862.99 54.252C3862.65 53.7272 3861.74 53.4648 3860.27 53.4648V72H3849.58V30.8926ZM3860.27 37.9258V47.0664C3861.47 47.0664 3862.31 46.9056 3862.78 46.584C3863.27 46.2454 3863.52 45.1706 3863.52 43.3594V41.0996C3863.52 39.7962 3863.28 38.9414 3862.81 38.5352C3862.35 38.1289 3861.5 37.9258 3860.27 37.9258ZM3890.38 30.8926V72H3879.69V30.8926H3890.38ZM3920.62 30.8926V72H3911.25L3905.69 53.3125V72H3896.75V30.8926H3905.69L3911.68 49.4023V30.8926H3920.62ZM3951.54 46.0254H3940.85V42.293C3940.85 39.9401 3940.75 38.4674 3940.55 37.875C3940.34 37.2826 3939.86 36.9863 3939.1 36.9863C3938.44 36.9863 3937.99 37.2402 3937.75 37.748C3937.52 38.2559 3937.4 39.5592 3937.4 41.6582V61.3867C3937.4 63.2318 3937.52 64.4505 3937.75 65.043C3937.99 65.6185 3938.47 65.9062 3939.18 65.9062C3939.95 65.9062 3940.48 65.5762 3940.75 64.916C3941.04 64.2559 3941.18 62.9694 3941.18 61.0566V56.1816H3939.02V49.9355H3951.54V72H3944.81L3943.82 69.0547C3943.09 70.3242 3942.17 71.2806 3941.06 71.9238C3939.95 72.5501 3938.65 72.8633 3937.15 72.8633C3935.35 72.8633 3933.67 72.4316 3932.09 71.5684C3930.53 70.6882 3929.35 69.6048 3928.54 68.3184C3927.73 67.0319 3927.22 65.6862 3927.01 64.2812C3926.81 62.8594 3926.71 60.735 3926.71 57.9082V45.6953C3926.71 41.7682 3926.92 38.916 3927.34 37.1387C3927.77 35.3613 3928.98 33.7363 3930.98 32.2637C3932.99 30.7741 3935.59 30.0293 3938.77 30.0293C3941.9 30.0293 3944.5 30.6725 3946.56 31.959C3948.63 33.2454 3949.98 34.7773 3950.6 36.5547C3951.23 38.3151 3951.54 40.8796 3951.54 44.248V46.0254ZM3987.52 30.8926L3993.64 72H3982.69L3982.16 64.6113H3978.32L3977.69 72H3966.62L3972.05 30.8926H3987.52ZM3981.85 57.3242C3981.31 52.6693 3980.77 46.9225 3980.23 40.084C3979.15 47.9382 3978.47 53.6849 3978.2 57.3242H3981.85ZM3997.54 30.8926H4008.21C4011.58 30.8926 4014.12 31.1549 4015.85 31.6797C4017.59 32.2044 4019 33.2708 4020.06 34.8789C4021.13 36.4701 4021.66 39.043 4021.66 42.5977C4021.66 45.0013 4021.28 46.6771 4020.52 47.625C4019.78 48.5729 4018.3 49.3008 4016.08 49.8086C4018.55 50.3672 4020.23 51.2982 4021.11 52.6016C4021.99 53.888 4022.43 55.8685 4022.43 58.543V62.3516C4022.43 65.1276 4022.1 67.1842 4021.46 68.5215C4020.83 69.8587 4019.83 70.7728 4018.44 71.2637C4017.05 71.7546 4014.21 72 4009.91 72H3997.54V30.8926ZM4008.23 37.9258V47.0664C4008.69 47.0495 4009.05 47.041 4009.3 47.041C4010.35 47.041 4011.02 46.7871 4011.3 46.2793C4011.59 45.7546 4011.74 44.2734 4011.74 41.8359C4011.74 40.5495 4011.62 39.6523 4011.38 39.1445C4011.14 38.6198 4010.83 38.2897 4010.44 38.1543C4010.07 38.0189 4009.33 37.9427 4008.23 37.9258ZM4008.23 53.4648V64.9668C4009.74 64.916 4010.7 64.679 4011.1 64.2559C4011.52 63.8327 4011.74 62.7917 4011.74 61.1328V57.2988C4011.74 55.5384 4011.55 54.472 4011.18 54.0996C4010.81 53.7272 4009.82 53.5156 4008.23 53.4648ZM4039.05 30.8926V72H4028.37V30.8926H4039.05ZM4056.12 30.8926V63.7734H4062.62V72H4045.43V30.8926H4056.12ZM4078 30.8926V72H4067.31V30.8926H4078ZM4105.9 30.8926V39.1191H4099.55V72H4088.86V39.1191H4082.54V30.8926H4105.9ZM4133.2 30.8926L4125.4 57.1211V72H4115.5V57.1211L4107.98 30.8926H4117.81C4119.35 38.8991 4120.21 44.2904 4120.4 47.0664C4120.99 42.6823 4121.98 37.291 4123.37 30.8926H4133.2ZM4172.83 54.9629C4172.83 59.0931 4172.72 62.0215 4172.52 63.748C4172.33 65.4577 4171.73 67.0234 4170.69 68.4453C4169.68 69.8672 4168.3 70.959 4166.55 71.7207C4164.81 72.4824 4162.78 72.8633 4160.46 72.8633C4158.26 72.8633 4156.28 72.5078 4154.52 71.7969C4152.78 71.069 4151.37 69.9857 4150.3 68.5469C4149.24 67.1081 4148.6 65.5423 4148.4 63.8496C4148.2 62.1569 4148.1 59.1947 4148.1 54.9629V47.9297C4148.1 43.7995 4148.19 40.8796 4148.37 39.1699C4148.58 37.4434 4149.19 35.8691 4150.2 34.4473C4151.24 33.0254 4152.62 31.9336 4154.37 31.1719C4156.11 30.4102 4158.14 30.0293 4160.46 30.0293C4162.66 30.0293 4164.63 30.3932 4166.38 31.1211C4168.14 31.832 4169.55 32.9069 4170.62 34.3457C4171.68 35.7845 4172.32 37.3503 4172.52 39.043C4172.72 40.7357 4172.83 43.6979 4172.83 47.9297V54.9629ZM4162.14 41.4551C4162.14 39.5423 4162.03 38.3236 4161.81 37.7988C4161.6 37.2572 4161.17 36.9863 4160.51 36.9863C4159.95 36.9863 4159.52 37.2064 4159.22 37.6465C4158.93 38.0697 4158.78 39.3392 4158.78 41.4551V60.6504C4158.78 63.0371 4158.88 64.5098 4159.06 65.0684C4159.27 65.627 4159.72 65.9062 4160.44 65.9062C4161.16 65.9062 4161.63 65.5846 4161.83 64.9414C4162.03 64.2982 4162.14 62.7663 4162.14 60.3457V41.4551ZM4178.92 30.8926H4197.02V39.1191H4189.61V46.9141H4196.21V54.7344H4189.61V72H4178.92V30.8926ZM4237.95 48.8184H4227.26V41.6582C4227.26 39.5762 4227.14 38.2812 4226.9 37.7734C4226.68 37.2487 4226.18 36.9863 4225.4 36.9863C4224.52 36.9863 4223.97 37.2995 4223.73 37.9258C4223.49 38.5521 4223.37 39.9062 4223.37 41.9883V61.082C4223.37 63.0794 4223.49 64.3828 4223.73 64.9922C4223.97 65.6016 4224.5 65.9062 4225.33 65.9062C4226.12 65.9062 4226.64 65.6016 4226.88 64.9922C4227.13 64.3828 4227.26 62.9525 4227.26 60.7012V55.5469H4237.95V57.1465C4237.95 61.3952 4237.64 64.4082 4237.03 66.1855C4236.44 67.9629 4235.11 69.5202 4233.05 70.8574C4231 72.1947 4228.47 72.8633 4225.45 72.8633C4222.32 72.8633 4219.74 72.2962 4217.71 71.1621C4215.68 70.028 4214.33 68.4622 4213.67 66.4648C4213.01 64.4505 4212.68 61.429 4212.68 57.4004V45.3906C4212.68 42.4284 4212.78 40.2109 4212.99 38.7383C4213.19 37.2487 4213.79 35.8184 4214.79 34.4473C4215.81 33.0762 4217.2 32.0013 4218.98 31.2227C4220.77 30.4271 4222.83 30.0293 4225.15 30.0293C4228.3 30.0293 4230.9 30.6387 4232.94 31.8574C4234.99 33.0762 4236.34 34.5996 4236.98 36.4277C4237.63 38.2389 4237.95 41.0658 4237.95 44.9082V48.8184ZM4268.29 54.9629C4268.29 59.0931 4268.19 62.0215 4267.98 63.748C4267.8 65.4577 4267.19 67.0234 4266.15 68.4453C4265.14 69.8672 4263.76 70.959 4262.02 71.7207C4260.27 72.4824 4258.24 72.8633 4255.92 72.8633C4253.72 72.8633 4251.74 72.5078 4249.98 71.7969C4248.24 71.069 4246.83 69.9857 4245.77 68.5469C4244.7 67.1081 4244.06 65.5423 4243.86 63.8496C4243.66 62.1569 4243.56 59.1947 4243.56 54.9629V47.9297C4243.56 43.7995 4243.65 40.8796 4243.84 39.1699C4244.04 37.4434 4244.65 35.8691 4245.66 34.4473C4246.7 33.0254 4248.08 31.9336 4249.83 31.1719C4251.57 30.4102 4253.6 30.0293 4255.92 30.0293C4258.12 30.0293 4260.09 30.3932 4261.84 31.1211C4263.6 31.832 4265.01 32.9069 4266.08 34.3457C4267.14 35.7845 4267.78 37.3503 4267.98 39.043C4268.19 40.7357 4268.29 43.6979 4268.29 47.9297V54.9629ZM4257.6 41.4551C4257.6 39.5423 4257.49 38.3236 4257.27 37.7988C4257.06 37.2572 4256.63 36.9863 4255.97 36.9863C4255.41 36.9863 4254.98 37.2064 4254.68 37.6465C4254.39 38.0697 4254.25 39.3392 4254.25 41.4551V60.6504C4254.25 63.0371 4254.34 64.5098 4254.52 65.0684C4254.73 65.627 4255.19 65.9062 4255.9 65.9062C4256.62 65.9062 4257.09 65.5846 4257.29 64.9414C4257.5 64.2982 4257.6 62.7663 4257.6 60.3457V41.4551ZM4314.6 30.8926L4309.85 72H4296.49C4295.27 65.6862 4294.2 58.5091 4293.27 50.4688C4292.85 53.9049 4291.86 61.082 4290.3 72H4277.02L4272.25 30.8926H4282.63L4283.72 45.2383L4284.84 59.0762C4285.23 51.916 4286.21 42.5215 4287.78 30.8926H4298.91C4299.06 32.0944 4299.45 36.6139 4300.07 44.4512L4301.24 60.0664C4301.83 50.1302 4302.82 40.4056 4304.21 30.8926H4314.6ZM4341.46 43.334H4331.53V40.2871C4331.53 38.8652 4331.4 37.9596 4331.15 37.5703C4330.9 37.181 4330.47 36.9863 4329.88 36.9863C4329.24 36.9863 4328.75 37.2487 4328.41 37.7734C4328.09 38.2982 4327.92 39.0938 4327.92 40.1602C4327.92 41.5312 4328.11 42.5638 4328.48 43.2578C4328.84 43.9518 4329.85 44.7897 4331.5 45.7715C4336.26 48.5983 4339.26 50.9173 4340.49 52.7285C4341.73 54.5397 4342.35 57.4596 4342.35 61.4883C4342.35 64.4167 4342 66.5749 4341.31 67.9629C4340.63 69.3509 4339.31 70.5189 4337.34 71.4668C4335.38 72.3978 4333.1 72.8633 4330.49 72.8633C4327.63 72.8633 4325.18 72.3216 4323.15 71.2383C4321.14 70.1549 4319.82 68.7754 4319.19 67.0996C4318.56 65.4238 4318.25 63.0456 4318.25 59.9648V57.2734H4328.18V62.2754C4328.18 63.8158 4328.31 64.806 4328.58 65.2461C4328.87 65.6862 4329.37 65.9062 4330.08 65.9062C4330.79 65.9062 4331.32 65.627 4331.66 65.0684C4332.01 64.5098 4332.19 63.6803 4332.19 62.5801C4332.19 60.1595 4331.86 58.5768 4331.2 57.832C4330.52 57.0872 4328.86 55.8431 4326.2 54.0996C4323.54 52.3392 4321.78 51.0612 4320.92 50.2656C4320.05 49.4701 4319.33 48.3698 4318.76 46.9648C4318.2 45.5599 4317.92 43.7656 4317.92 41.582C4317.92 38.4336 4318.32 36.1315 4319.11 34.6758C4319.93 33.2201 4321.23 32.0859 4323.02 31.2734C4324.82 30.444 4326.99 30.0293 4329.52 30.0293C4332.3 30.0293 4334.66 30.4779 4336.61 31.375C4338.57 32.2721 4339.87 33.4062 4340.49 34.7773C4341.14 36.1315 4341.46 38.4421 4341.46 41.709V43.334ZM4369.76 30.8926V72H4359.08V30.8926H4369.76ZM4398.78 43.334H4388.86V40.2871C4388.86 38.8652 4388.73 37.9596 4388.48 37.5703C4388.22 37.181 4387.8 36.9863 4387.21 36.9863C4386.56 36.9863 4386.07 37.2487 4385.73 37.7734C4385.41 38.2982 4385.25 39.0938 4385.25 40.1602C4385.25 41.5312 4385.44 42.5638 4385.81 43.2578C4386.17 43.9518 4387.17 44.7897 4388.83 45.7715C4393.59 48.5983 4396.58 50.9173 4397.82 52.7285C4399.06 54.5397 4399.67 57.4596 4399.67 61.4883C4399.67 64.4167 4399.33 66.5749 4398.63 67.9629C4397.95 69.3509 4396.63 70.5189 4394.67 71.4668C4392.71 72.3978 4390.42 72.8633 4387.82 72.8633C4384.95 72.8633 4382.51 72.3216 4380.48 71.2383C4378.46 70.1549 4377.14 68.7754 4376.52 67.0996C4375.89 65.4238 4375.58 63.0456 4375.58 59.9648V57.2734H4385.5V62.2754C4385.5 63.8158 4385.64 64.806 4385.91 65.2461C4386.2 65.6862 4386.7 65.9062 4387.41 65.9062C4388.12 65.9062 4388.64 65.627 4388.98 65.0684C4389.34 64.5098 4389.52 63.6803 4389.52 62.5801C4389.52 60.1595 4389.19 58.5768 4388.53 57.832C4387.85 57.0872 4386.18 55.8431 4383.52 54.0996C4380.87 52.3392 4379.11 51.0612 4378.24 50.2656C4377.38 49.4701 4376.66 48.3698 4376.08 46.9648C4375.53 45.5599 4375.25 43.7656 4375.25 41.582C4375.25 38.4336 4375.64 36.1315 4376.44 34.6758C4377.25 33.2201 4378.56 32.0859 4380.35 31.2734C4382.14 30.444 4384.31 30.0293 4386.85 30.0293C4389.63 30.0293 4391.99 30.4779 4393.93 31.375C4395.9 32.2721 4397.19 33.4062 4397.82 34.7773C4398.46 36.1315 4398.78 38.4421 4398.78 41.709V43.334ZM4416.4 30.8926H4427.06C4430.43 30.8926 4432.98 31.1549 4434.71 31.6797C4436.45 32.2044 4437.86 33.2708 4438.92 34.8789C4439.99 36.4701 4440.52 39.043 4440.52 42.5977C4440.52 45.0013 4440.14 46.6771 4439.38 47.625C4438.63 48.5729 4437.15 49.3008 4434.94 49.8086C4437.41 50.3672 4439.08 51.2982 4439.96 52.6016C4440.84 53.888 4441.28 55.8685 4441.28 58.543V62.3516C4441.28 65.1276 4440.96 67.1842 4440.32 68.5215C4439.69 69.8587 4438.69 70.7728 4437.3 71.2637C4435.91 71.7546 4433.07 72 4428.77 72H4416.4V30.8926ZM4427.09 37.9258V47.0664C4427.55 47.0495 4427.9 47.041 4428.16 47.041C4429.21 47.041 4429.87 46.7871 4430.16 46.2793C4430.45 45.7546 4430.59 44.2734 4430.59 41.8359C4430.59 40.5495 4430.48 39.6523 4430.24 39.1445C4430 38.6198 4429.69 38.2897 4429.3 38.1543C4428.93 38.0189 4428.19 37.9427 4427.09 37.9258ZM4427.09 53.4648V64.9668C4428.6 64.916 4429.55 64.679 4429.96 64.2559C4430.38 63.8327 4430.59 62.7917 4430.59 61.1328V57.2988C4430.59 55.5384 4430.41 54.472 4430.04 54.0996C4429.66 53.7272 4428.68 53.5156 4427.09 53.4648ZM4447.22 30.8926H4465.05V39.1191H4457.91V46.9141H4464.59V54.7344H4457.91V63.7734H4465.76V72H4447.22V30.8926ZM4492.47 30.8926V39.1191H4486.12V72H4475.43V39.1191H4469.11V30.8926H4492.47ZM4518.52 30.8926V39.1191H4512.17V72H4501.48V39.1191H4495.16V30.8926H4518.52ZM4523.03 30.8926H4540.86V39.1191H4533.72V46.9141H4540.4V54.7344H4533.72V63.7734H4541.57V72H4523.03V30.8926ZM4546.75 30.8926H4554.31C4559.36 30.8926 4562.77 31.0872 4564.55 31.4766C4566.34 31.8659 4567.8 32.8646 4568.91 34.4727C4570.05 36.0638 4570.61 38.6113 4570.61 42.1152C4570.61 45.3145 4570.22 47.4642 4569.42 48.5645C4568.62 49.6647 4567.06 50.3249 4564.72 50.5449C4566.84 51.0697 4568.26 51.7721 4568.99 52.6523C4569.72 53.5326 4570.17 54.3451 4570.33 55.0898C4570.52 55.8177 4570.61 57.8405 4570.61 61.1582V72H4560.69V58.3398C4560.69 56.1393 4560.51 54.7767 4560.15 54.252C4559.81 53.7272 4558.91 53.4648 4557.44 53.4648V72H4546.75V30.8926ZM4557.44 37.9258V47.0664C4558.64 47.0664 4559.48 46.9056 4559.95 46.584C4560.44 46.2454 4560.69 45.1706 4560.69 43.3594V41.0996C4560.69 39.7962 4560.45 38.9414 4559.98 38.5352C4559.52 38.1289 4558.67 37.9258 4557.44 37.9258ZM4598.82 30.8926V72H4588.13V30.8926H4598.82ZM4629.06 30.8926V72H4619.69L4614.13 53.3125V72H4605.19V30.8926H4614.13L4620.12 49.4023V30.8926H4629.06ZM4668.26 30.8926V39.1191H4661.91V72H4651.22V39.1191H4644.9V30.8926H4668.26ZM4697.35 30.8926V72H4686.66V54.7344H4683.46V72H4672.77V30.8926H4683.46V45.5938H4686.66V30.8926H4697.35ZM4703.75 30.8926H4721.57V39.1191H4714.44V46.9141H4721.12V54.7344H4714.44V63.7734H4722.28V72H4703.75V30.8926ZM4738.73 30.8926H4746.73C4751.89 30.8926 4755.38 31.1296 4757.19 31.6035C4759.02 32.0775 4760.41 32.8561 4761.35 33.9395C4762.3 35.0228 4762.9 36.2331 4763.13 37.5703C4763.37 38.8906 4763.49 41.4974 4763.49 45.3906V59.7871C4763.49 63.4772 4763.31 65.9486 4762.95 67.2012C4762.62 68.4368 4762.02 69.4102 4761.15 70.1211C4760.29 70.8151 4759.22 71.306 4757.95 71.5938C4756.68 71.8646 4754.77 72 4752.21 72H4738.73V30.8926ZM4749.42 37.9258V64.9668C4750.96 64.9668 4751.91 64.6621 4752.27 64.0527C4752.62 63.4264 4752.8 61.7422 4752.8 59V43.0293C4752.8 41.1673 4752.74 39.974 4752.62 39.4492C4752.5 38.9245 4752.23 38.5436 4751.81 38.3066C4751.38 38.0527 4750.59 37.9258 4749.42 37.9258ZM4769.55 30.8926H4787.38V39.1191H4780.24V46.9141H4786.92V54.7344H4780.24V63.7734H4788.09V72H4769.55V30.8926ZM4793.27 30.8926H4811.09V39.1191H4803.96V46.9141H4810.63V54.7344H4803.96V63.7734H4811.8V72H4793.27V30.8926ZM4816.98 30.8926H4827.75C4830.66 30.8926 4832.89 31.1211 4834.45 31.5781C4836.02 32.0352 4837.2 32.6953 4837.98 33.5586C4838.77 34.4219 4839.31 35.4714 4839.58 36.707C4839.87 37.9258 4840.01 39.8216 4840.01 42.3945V45.9746C4840.01 48.5983 4839.74 50.5111 4839.2 51.7129C4838.66 52.9147 4837.66 53.8372 4836.2 54.4805C4834.76 55.1237 4832.87 55.4453 4830.54 55.4453H4827.67V72H4816.98V30.8926ZM4827.67 37.9258V48.3867C4827.97 48.4036 4828.24 48.4121 4828.46 48.4121C4829.44 48.4121 4830.12 48.1751 4830.49 47.7012C4830.88 47.2103 4831.07 46.2031 4831.07 44.6797V41.3027C4831.07 39.8978 4830.85 38.9837 4830.41 38.5605C4829.97 38.1374 4829.06 37.9258 4827.67 37.9258ZM4874.89 30.8926L4881.01 72H4870.07L4869.53 64.6113H4865.7L4865.07 72H4854L4859.43 30.8926H4874.89ZM4869.23 57.3242C4868.69 52.6693 4868.15 46.9225 4867.6 40.084C4866.52 47.9382 4865.84 53.6849 4865.57 57.3242H4869.23ZM4908.79 30.8926V72H4899.42L4893.86 53.3125V72H4884.92V30.8926H4893.86L4899.85 49.4023V30.8926H4908.79ZM4915.18 30.8926H4923.18C4928.34 30.8926 4931.83 31.1296 4933.64 31.6035C4935.47 32.0775 4936.86 32.8561 4937.81 33.9395C4938.75 35.0228 4939.35 36.2331 4939.58 37.5703C4939.82 38.8906 4939.94 41.4974 4939.94 45.3906V59.7871C4939.94 63.4772 4939.76 65.9486 4939.41 67.2012C4939.07 68.4368 4938.47 69.4102 4937.6 70.1211C4936.74 70.8151 4935.67 71.306 4934.4 71.5938C4933.13 71.8646 4931.22 72 4928.67 72H4915.18V30.8926ZM4925.87 37.9258V64.9668C4927.41 64.9668 4928.36 64.6621 4928.72 64.0527C4929.07 63.4264 4929.25 61.7422 4929.25 59V43.0293C4929.25 41.1673 4929.19 39.974 4929.07 39.4492C4928.95 38.9245 4928.68 38.5436 4928.26 38.3066C4927.84 38.0527 4927.04 37.9258 4925.87 37.9258ZM4981.85 30.8926V72H4971.17V54.7344H4967.97V72H4957.28V30.8926H4967.97V45.5938H4971.17V30.8926H4981.85ZM4998.94 30.8926V72H4988.25V30.8926H4998.94ZM5029.84 46.0254H5019.15V42.293C5019.15 39.9401 5019.05 38.4674 5018.84 37.875C5018.64 37.2826 5018.16 36.9863 5017.4 36.9863C5016.74 36.9863 5016.29 37.2402 5016.05 37.748C5015.81 38.2559 5015.7 39.5592 5015.7 41.6582V61.3867C5015.7 63.2318 5015.81 64.4505 5016.05 65.043C5016.29 65.6185 5016.76 65.9062 5017.47 65.9062C5018.25 65.9062 5018.78 65.5762 5019.05 64.916C5019.34 64.2559 5019.48 62.9694 5019.48 61.0566V56.1816H5017.32V49.9355H5029.84V72H5023.11L5022.12 69.0547C5021.39 70.3242 5020.47 71.2806 5019.35 71.9238C5018.25 72.5501 5016.95 72.8633 5015.44 72.8633C5013.65 72.8633 5011.96 72.4316 5010.39 71.5684C5008.83 70.6882 5007.65 69.6048 5006.83 68.3184C5006.02 67.0319 5005.51 65.6862 5005.31 64.2812C5005.11 62.8594 5005.01 60.735 5005.01 57.9082V45.6953C5005.01 41.7682 5005.22 38.916 5005.64 37.1387C5006.06 35.3613 5007.27 33.7363 5009.27 32.2637C5011.29 30.7741 5013.88 30.0293 5017.07 30.0293C5020.2 30.0293 5022.8 30.6725 5024.86 31.959C5026.93 33.2454 5028.27 34.7773 5028.9 36.5547C5029.53 38.3151 5029.84 40.8796 5029.84 44.248V46.0254ZM5060.66 30.8926V72H5049.97V54.7344H5046.77V72H5036.08V30.8926H5046.77V45.5938H5049.97V30.8926H5060.66ZM5078.33 30.8926H5096.43V39.1191H5089.02V46.9141H5095.62V54.7344H5089.02V72H5078.33V30.8926ZM5101.13 30.8926H5108.69C5113.74 30.8926 5117.15 31.0872 5118.93 31.4766C5120.72 31.8659 5122.18 32.8646 5123.29 34.4727C5124.43 36.0638 5124.99 38.6113 5124.99 42.1152C5124.99 45.3145 5124.6 47.4642 5123.8 48.5645C5123.01 49.6647 5121.44 50.3249 5119.1 50.5449C5121.22 51.0697 5122.64 51.7721 5123.37 52.6523C5124.1 53.5326 5124.55 54.3451 5124.72 55.0898C5124.9 55.8177 5124.99 57.8405 5124.99 61.1582V72H5115.07V58.3398C5115.07 56.1393 5114.89 54.7767 5114.53 54.252C5114.2 53.7272 5113.29 53.4648 5111.82 53.4648V72H5101.13V30.8926ZM5111.82 37.9258V47.0664C5113.02 47.0664 5113.86 46.9056 5114.33 46.584C5114.82 46.2454 5115.07 45.1706 5115.07 43.3594V41.0996C5115.07 39.7962 5114.83 38.9414 5114.36 38.5352C5113.9 38.1289 5113.05 37.9258 5111.82 37.9258ZM5131.24 30.8926H5149.06V39.1191H5141.93V46.9141H5148.61V54.7344H5141.93V63.7734H5149.77V72H5131.24V30.8926ZM5179.4 72V76.9766H5171.33C5169.38 76.9766 5168.01 76.8242 5167.22 76.5195C5166.42 76.2318 5165.88 75.7917 5165.59 75.1992C5165.32 74.6068 5165.18 73.5404 5165.18 72C5162.76 71.9323 5160.68 71.2975 5158.94 70.0957C5157.19 68.8939 5156.04 67.3704 5155.48 65.5254C5154.93 63.6634 5154.65 60.8874 5154.65 57.1973V44.4766C5154.65 41.6836 5154.81 39.5592 5155.13 38.1035C5155.47 36.6309 5156.15 35.2513 5157.19 33.9648C5158.22 32.6615 5159.55 31.6797 5161.17 31.0195C5162.8 30.3594 5164.6 30.0293 5166.58 30.0293C5168.97 30.0293 5171.09 30.4355 5172.95 31.248C5174.83 32.0605 5176.23 33.0931 5177.14 34.3457C5178.07 35.5983 5178.67 36.9017 5178.95 38.2559C5179.23 39.5931 5179.38 41.5905 5179.38 44.248V57.6035C5179.38 61.2598 5179.2 63.7396 5178.84 65.043C5178.49 66.3464 5177.8 67.3874 5176.79 68.166C5175.79 68.9277 5174.45 69.5117 5172.78 69.918C5172.83 70.832 5173.01 71.4076 5173.33 71.6445C5173.67 71.8815 5174.46 72 5175.7 72H5179.4ZM5168.69 41.4551C5168.69 39.5423 5168.58 38.3236 5168.36 37.7988C5168.15 37.2572 5167.72 36.9863 5167.06 36.9863C5166.5 36.9863 5166.07 37.2064 5165.77 37.6465C5165.48 38.0697 5165.34 39.3392 5165.34 41.4551V60.6504C5165.34 63.0371 5165.43 64.5098 5165.62 65.0684C5165.82 65.627 5166.28 65.9062 5166.99 65.9062C5167.71 65.9062 5168.18 65.5846 5168.38 64.9414C5168.59 64.2982 5168.69 62.7663 5168.69 60.3457V41.4551ZM5209.77 30.8926V58.3652C5209.77 61.4798 5209.67 63.6719 5209.46 64.9414C5209.26 66.194 5208.66 67.4889 5207.66 68.8262C5206.66 70.1465 5205.34 71.1536 5203.7 71.8477C5202.07 72.5247 5200.15 72.8633 5197.94 72.8633C5195.48 72.8633 5193.31 72.457 5191.44 71.6445C5189.56 70.832 5188.15 69.7741 5187.22 68.4707C5186.29 67.1673 5185.74 65.7962 5185.57 64.3574C5185.4 62.9017 5185.32 59.8548 5185.32 55.2168V30.8926H5196.01V61.7168C5196.01 63.5111 5196.1 64.6621 5196.29 65.1699C5196.49 65.6608 5196.89 65.9062 5197.48 65.9062C5198.16 65.9062 5198.59 65.6354 5198.77 65.0938C5198.98 64.5352 5199.08 63.2318 5199.08 61.1836V30.8926H5209.77ZM5215.99 30.8926H5233.81V39.1191H5226.68V46.9141H5233.35V54.7344H5226.68V63.7734H5234.52V72H5215.99V30.8926ZM5263.57 30.8926V72H5254.2L5248.64 53.3125V72H5239.7V30.8926H5248.64L5254.63 49.4023V30.8926H5263.57ZM5294.92 48.8184H5284.23V41.6582C5284.23 39.5762 5284.11 38.2812 5283.88 37.7734C5283.66 37.2487 5283.16 36.9863 5282.38 36.9863C5281.5 36.9863 5280.94 37.2995 5280.7 37.9258C5280.47 38.5521 5280.35 39.9062 5280.35 41.9883V61.082C5280.35 63.0794 5280.47 64.3828 5280.7 64.9922C5280.94 65.6016 5281.47 65.9062 5282.3 65.9062C5283.1 65.9062 5283.61 65.6016 5283.85 64.9922C5284.11 64.3828 5284.23 62.9525 5284.23 60.7012V55.5469H5294.92V57.1465C5294.92 61.3952 5294.62 64.4082 5294.01 66.1855C5293.42 67.9629 5292.09 69.5202 5290.02 70.8574C5287.97 72.1947 5285.44 72.8633 5282.43 72.8633C5279.3 72.8633 5276.72 72.2962 5274.69 71.1621C5272.65 70.028 5271.31 68.4622 5270.65 66.4648C5269.99 64.4505 5269.66 61.429 5269.66 57.4004V45.3906C5269.66 42.4284 5269.76 40.2109 5269.96 38.7383C5270.17 37.2487 5270.77 35.8184 5271.77 34.4473C5272.78 33.0762 5274.18 32.0013 5275.96 31.2227C5277.75 30.4271 5279.81 30.0293 5282.12 30.0293C5285.27 30.0293 5287.87 30.6387 5289.92 31.8574C5291.97 33.0762 5293.31 34.5996 5293.96 36.4277C5294.6 38.2389 5294.92 41.0658 5294.92 44.9082V48.8184ZM5323.61 30.8926L5315.82 57.1211V72H5305.91V57.1211L5298.4 30.8926H5308.22C5309.76 38.8991 5310.63 44.2904 5310.81 47.0664C5311.41 42.6823 5312.4 37.291 5313.79 30.8926H5323.61ZM5338.82 30.8926H5346.38C5351.43 30.8926 5354.84 31.0872 5356.61 31.4766C5358.41 31.8659 5359.86 32.8646 5360.98 34.4727C5362.12 36.0638 5362.68 38.6113 5362.68 42.1152C5362.68 45.3145 5362.29 47.4642 5361.49 48.5645C5360.69 49.6647 5359.13 50.3249 5356.79 50.5449C5358.91 51.0697 5360.33 51.7721 5361.06 52.6523C5361.79 53.5326 5362.23 54.3451 5362.4 55.0898C5362.59 55.8177 5362.68 57.8405 5362.68 61.1582V72H5352.76V58.3398C5352.76 56.1393 5352.58 54.7767 5352.22 54.252C5351.88 53.7272 5350.98 53.4648 5349.51 53.4648V72H5338.82V30.8926ZM5349.51 37.9258V47.0664C5350.71 47.0664 5351.55 46.9056 5352.02 46.584C5352.51 46.2454 5352.76 45.1706 5352.76 43.3594V41.0996C5352.76 39.7962 5352.52 38.9414 5352.04 38.5352C5351.59 38.1289 5350.74 37.9258 5349.51 37.9258ZM5387.39 30.8926L5393.51 72H5382.56L5382.03 64.6113H5378.19L5377.56 72H5366.49L5371.92 30.8926H5387.39ZM5381.72 57.3242C5381.18 52.6693 5380.64 46.9225 5380.1 40.084C5379.02 47.9382 5378.34 53.6849 5378.07 57.3242H5381.72ZM5421.28 30.8926V72H5411.91L5406.35 53.3125V72H5397.41V30.8926H5406.35L5412.34 49.4023V30.8926H5421.28ZM5452.2 46.0254H5441.52V42.293C5441.52 39.9401 5441.41 38.4674 5441.21 37.875C5441.01 37.2826 5440.52 36.9863 5439.76 36.9863C5439.1 36.9863 5438.65 37.2402 5438.42 37.748C5438.18 38.2559 5438.06 39.5592 5438.06 41.6582V61.3867C5438.06 63.2318 5438.18 64.4505 5438.42 65.043C5438.65 65.6185 5439.13 65.9062 5439.84 65.9062C5440.62 65.9062 5441.14 65.5762 5441.41 64.916C5441.7 64.2559 5441.85 62.9694 5441.85 61.0566V56.1816H5439.69V49.9355H5452.2V72H5445.48L5444.49 69.0547C5443.76 70.3242 5442.84 71.2806 5441.72 71.9238C5440.62 72.5501 5439.31 72.8633 5437.81 72.8633C5436.01 72.8633 5434.33 72.4316 5432.76 71.5684C5431.2 70.6882 5430.01 69.6048 5429.2 68.3184C5428.39 67.0319 5427.88 65.6862 5427.68 64.2812C5427.47 62.8594 5427.37 60.735 5427.37 57.9082V45.6953C5427.37 41.7682 5427.58 38.916 5428.01 37.1387C5428.43 35.3613 5429.64 33.7363 5431.64 32.2637C5433.65 30.7741 5436.25 30.0293 5439.43 30.0293C5442.56 30.0293 5445.16 30.6725 5447.23 31.959C5449.29 33.2454 5450.64 34.7773 5451.27 36.5547C5451.89 38.3151 5452.2 40.8796 5452.2 44.248V46.0254ZM5458.45 30.8926H5476.27V39.1191H5469.14V46.9141H5475.82V54.7344H5469.14V63.7734H5476.98V72H5458.45V30.8926ZM5504.81 43.334H5494.88V40.2871C5494.88 38.8652 5494.76 37.9596 5494.5 37.5703C5494.25 37.181 5493.82 36.9863 5493.23 36.9863C5492.59 36.9863 5492.1 37.2487 5491.76 37.7734C5491.44 38.2982 5491.28 39.0938 5491.28 40.1602C5491.28 41.5312 5491.46 42.5638 5491.84 43.2578C5492.19 43.9518 5493.2 44.7897 5494.86 45.7715C5499.61 48.5983 5502.61 50.9173 5503.85 52.7285C5505.08 54.5397 5505.7 57.4596 5505.7 61.4883C5505.7 64.4167 5505.35 66.5749 5504.66 67.9629C5503.98 69.3509 5502.66 70.5189 5500.7 71.4668C5498.73 72.3978 5496.45 72.8633 5493.84 72.8633C5490.98 72.8633 5488.53 72.3216 5486.5 71.2383C5484.49 70.1549 5483.17 68.7754 5482.54 67.0996C5481.92 65.4238 5481.6 63.0456 5481.6 59.9648V57.2734H5491.53V62.2754C5491.53 63.8158 5491.67 64.806 5491.94 65.2461C5492.22 65.6862 5492.72 65.9062 5493.44 65.9062C5494.15 65.9062 5494.67 65.627 5495.01 65.0684C5495.36 64.5098 5495.54 63.6803 5495.54 62.5801C5495.54 60.1595 5495.21 58.5768 5494.55 57.832C5493.88 57.0872 5492.21 55.8431 5489.55 54.0996C5486.89 52.3392 5485.13 51.0612 5484.27 50.2656C5483.41 49.4701 5482.69 48.3698 5482.11 46.9648C5481.55 45.5599 5481.27 43.7656 5481.27 41.582C5481.27 38.4336 5481.67 36.1315 5482.47 34.6758C5483.28 33.2201 5484.58 32.0859 5486.38 31.2734C5488.17 30.444 5490.34 30.0293 5492.88 30.0293C5495.65 30.0293 5498.01 30.4779 5499.96 31.375C5501.92 32.2721 5503.22 33.4062 5503.85 34.7773C5504.49 36.1315 5504.81 38.4421 5504.81 41.709V43.334ZM5517.68 63.6211V72H5509.94V63.6211H5517.68Z" fill="#05077D"/>
</svg>
